<?xml version="1.0" encoding="UTF-8" standalone="no"?>
<!-- Created with Inkscape (http://www.inkscape.org/) -->
<svg xmlns:dc="http://purl.org/dc/elements/1.1/" xmlns:cc="http://creativecommons.org/ns#" xmlns:rdf="http://www.w3.org/1999/02/22-rdf-syntax-ns#" xmlns:svg="http://www.w3.org/2000/svg" xmlns="http://www.w3.org/2000/svg" xmlns:sodipodi="http://sodipodi.sourceforge.net/DTD/sodipodi-0.dtd" xmlns:inkscape="http://www.inkscape.org/namespaces/inkscape" version="1.0" width="620" height="213.34" id="svg2" inkscape:version="0.48.4 r9939" sodipodi:docname="Molecule_coniferyl_alcohol.svg">
  <metadata id="metadata8">
    <rdf:RDF>
      <cc:Work rdf:about="">
        <dc:format>image/svg+xml</dc:format>
        <dc:type rdf:resource="http://purl.org/dc/dcmitype/StillImage"/>
      </cc:Work>
    </rdf:RDF>
  </metadata>
  <sodipodi:namedview pagecolor="#ffffff" bordercolor="#666666" borderopacity="1" objecttolerance="10" gridtolerance="10" guidetolerance="10" inkscape:pageopacity="1" inkscape:pageshadow="2" inkscape:window-width="639" inkscape:window-height="480" id="namedview6" showgrid="false" inkscape:zoom="0.6" inkscape:cx="310" inkscape:cy="106.67" inkscape:window-x="533" inkscape:window-y="247" inkscape:window-maximized="0" inkscape:current-layer="svg2"/>
  <defs id="defs4"/>
  <g transform="translate(262.21428,-872.5432)" id="layer1">
    <path d="M -218.05337,1074.7461 C -219.0711,1074.1256 -220.33775,1072.7079 -220.86814,1071.5956 C -221.70638,1069.8378 -221.72396,1069.5047 -221.00259,1069.0485 C -219.59368,1068.1573 -218.92042,1068.4388 -218.17884,1070.2292 C -217.33726,1072.2609 -216.08192,1073.043 -213.66246,1073.043 C -210.32096,1073.043 -208.08234,1069.2252 -209.67684,1066.2459 C -210.35455,1064.9796 -213.65787,1063.79 -215.03207,1064.3172 C -215.81531,1064.6178 -215.9796,1064.4337 -215.82751,1063.4256 C -215.69243,1062.5303 -214.98277,1061.9318 -213.42409,1061.3985 C -210.06169,1060.2481 -209.26342,1058.1489 -211.38252,1056.0298 C -213.49295,1053.9194 -217.82226,1055.2167 -218.83801,1058.2639 C -219.00476,1058.7642 -219.51527,1058.8804 -220.36325,1058.6113 C -221.97361,1058.1002 -221.58969,1056.4476 -219.31717,1054.1085 C -217.06354,1051.7888 -213.02155,1051.4202 -210.29202,1053.2855 C -207.16114,1055.4251 -206.57958,1059.3788 -209.08075,1061.5203 C -210.11556,1062.4064 -210.08723,1062.496 -208.21455,1064.2622 C -202.23841,1069.8984 -210.88785,1079.115 -218.05337,1074.7461 z M -192.28018,1065.9832 C -195.85255,1064.7091 -197.71889,1062.8323 -199.92203,1058.2982 C -201.23605,1055.594 -201.439,1054.4625 -201.44789,1049.7916 C -201.45922,1043.8361 -200.2924,1040.258 -197.3162,1037.1215 C -193.93223,1033.5553 -187.64766,1031.9393 -182.53799,1033.3215 C -179.57596,1034.1227 -176.01123,1037.3284 -174.81502,1040.2668 L -173.95973,1042.3676 L -176.08323,1042.9546 C -177.25115,1043.2774 -178.27153,1043.3528 -178.35075,1043.1222 C -178.92638,1041.4459 -181.0522,1038.8209 -182.59662,1037.8793 C -186.69904,1035.378 -192.98103,1037.3116 -195.50351,1041.8521 C -196.73721,1044.0728 -196.92127,1045.1035 -196.92127,1049.7916 C -196.92127,1054.4797 -196.73721,1055.5105 -195.50351,1057.7311 C -193.6097,1061.14 -190.10578,1063.0084 -186.24576,1062.6678 C -182.83588,1062.3669 -180.87828,1060.9652 -179.05738,1057.521 C -177.69252,1054.9393 -177.56554,1054.8527 -175.65473,1055.2016 C -174.56305,1055.4008 -173.5883,1055.6439 -173.48863,1055.7417 C -172.88846,1056.3309 -176.1606,1062.0455 -177.99932,1063.6194 C -181.62708,1066.7246 -187.48338,1067.694 -192.28018,1065.9832 z M -159.04232,1066.0176 C -162.65326,1064.8371 -165.75013,1062.0679 -167.54341,1058.4162 C -168.94608,1055.5597 -169.13299,1054.5456 -169.13299,1049.7916 C -169.13299,1045.0328 -168.9468,1044.0249 -167.5374,1041.1548 C -164.1248,1034.2053 -157.04441,1031.286 -149.24538,1033.6127 C -143.23589,1035.4056 -139.53415,1040.6592 -138.96346,1048.2051 C -138.17227,1058.6663 -143.82294,1066.0187 -153.08618,1066.5809 C -155.18132,1066.708 -157.64239,1066.4753 -159.04232,1066.0176 z M -148.01694,1060.7782 C -145.27381,1058.5916 -143.86273,1055.7071 -143.48197,1051.508 C -142.89823,1045.0705 -145.29417,1039.8726 -149.7855,1037.8331 C -155.64827,1035.1707 -162.20809,1038.1657 -164.04236,1044.3424 C -167.06383,1054.5167 -162.00979,1063.232 -153.40446,1062.6865 C -150.8287,1062.5233 -149.70818,1062.1264 -148.01694,1060.7782 z M -252.21428,1049.7916 L -252.21428,1033.3455 L -249.94585,1033.3455 L -247.67742,1033.3455 L -247.67742,1040.1507 L -247.67742,1046.956 L -239.1708,1046.956 L -230.66419,1046.956 L -230.66419,1040.1507 L -230.66419,1033.3455 L -228.39575,1033.3455 L -226.12732,1033.3455 L -226.12732,1049.7916 L -226.12732,1066.2377 L -228.39575,1066.2377 L -230.66419,1066.2377 L -230.66419,1058.5817 L -230.66419,1050.9258 L -239.1708,1050.9258 L -247.67742,1050.9258 L -247.67742,1058.5817 L -247.67742,1066.2377 L -249.94585,1066.2377 L -252.21428,1066.2377 L -252.21428,1049.7916 z M -56.2269,1031.5718 C -73.977315,1021.3186 -88.651229,1012.938 -88.835595,1012.9483 C -89.019956,1012.9586 -99.63394,1019.0386 -112.42222,1026.4594 L -135.67364,1039.9518 L -136.44484,1038.5492 C -137.09502,1037.3666 -137.09502,1037.0744 -136.44484,1036.6867 C -136.02068,1036.4339 -125.5933,1030.3979 -113.27288,1023.2735 L -90.87212,1010.3201 L -90.73459,973.48684 L -90.59706,936.65361 L -108.31493,926.45945 C -118.05976,920.85266 -128.27431,914.95808 -131.01392,913.36039 L -135.99504,910.45549 L -134.97447,909.19514 L -133.9539,907.93479 L -111.35453,921.00546 L -88.755157,934.07613 L -57.488499,916.03041 C -40.291836,906.10527 -25.647441,897.68037 -24.945401,897.30841 C -23.788354,896.69539 -20.56577,898.42226 9.5063947,915.76998 L 42.68175,934.90783 L 42.68175,972.42378 L 42.68175,1009.9397 L 73.965659,1028.0226 C 91.171811,1037.9681 105.52673,1046.175 105.86547,1046.26 C 106.20422,1046.345 120.90009,1038.0768 138.52296,1027.8862 C 156.14583,1017.6956 170.81975,1009.3573 171.13166,1009.3566 C 171.44356,1009.3559 185.67759,1017.4412 202.76282,1027.324 C 219.84806,1037.2068 234.4018,1045.5546 235.10447,1045.8747 C 236.21887,1046.3825 239.09618,1044.8865 257.63209,1034.1619 C 269.31961,1027.3997 279.46061,1021.5996 280.16764,1021.2727 C 281.21261,1020.7896 281.60341,1020.8819 282.25612,1021.7662 C 282.69775,1022.3645 282.88486,1023.0284 282.67193,1023.2417 C 282.459,1023.4549 271.88935,1029.6288 259.18383,1036.9614 L 236.08289,1050.2935 L 203.7438,1031.6115 C 185.95731,1021.3365 171.28184,1012.9296 171.13166,1012.9296 C 170.98147,1012.9296 156.30402,1021.3376 138.51511,1031.6141 L 106.17162,1050.2986 L 73.812047,1031.6141 C 56.014283,1021.3376 41.332794,1012.9296 41.186514,1012.9296 C 41.040228,1012.9296 26.834304,1021.0597 9.6177804,1030.9965 C -7.598738,1040.9334 -22.195377,1049.3224 -22.819195,1049.6387 C -23.775605,1050.1238 -29.012738,1047.2915 -56.2269,1031.5718 z M 8.6100242,1027.9121 L 39.854406,1009.8704 L 39.708535,973.34392 L 39.562657,936.81746 L 7.8954798,918.53077 L -23.771704,900.24408 L -55.337034,918.47841 L -86.90237,936.71274 L -87.048264,973.34709 L -87.194159,1009.9814 L -55.857338,1028.1526 C -38.622089,1038.1467 -24.096135,1046.2405 -23.577441,1046.1388 C -23.058747,1046.0371 -8.57439,1037.8351 8.6100242,1027.9121 z M -23.691957,1035.5726 C -24.20498,1034.614 -24.18136,1034.1962 -23.583441,1033.6527 C -22.734203,1032.8809 27.131548,1004.1146 28.54482,1003.5813 C 29.129162,1003.3608 29.645003,1003.7031 30.042234,1004.5749 C 30.630767,1005.8666 29.985597,1006.2879 7.6432359,1019.1999 C -26.051675,1038.6727 -22.911072,1037.0317 -23.691957,1035.5726 z M -79.246416,973.51561 L -79.246416,942.60824 L -77.545092,942.60824 L -75.843769,942.60824 L -75.843769,973.51561 L -75.843769,1004.423 L -77.545092,1004.423 L -79.246416,1004.423 L -79.246416,973.51561 z M 2.4242851,928.41872 C -12.075543,920.02739 -24.009515,912.95033 -24.095647,912.69193 C -24.181779,912.43353 -23.909783,911.75376 -23.491218,911.18133 C -22.781006,910.21007 -20.971847,911.15371 3.5958219,925.3097 C 18.075126,933.65274 30.12341,940.66192 30.369795,940.88566 C 30.616175,941.1094 30.360977,941.82869 29.802688,942.48408 C 28.788359,943.67482 28.768113,943.66442 2.4242851,928.41872 z M 106.18367,1035.5875 C 105.82175,1034.9112 105.74068,1034.1433 106.0035,1033.8809 C 106.48677,1033.3985 163.24294,1000.5332 164.36713,1000.0848 C 164.70145,999.95141 165.26139,1000.4709 165.61142,1001.2391 C 166.24129,1002.6215 165.94656,1002.8099 136.97034,1019.5502 C 120.86772,1028.8531 107.50134,1036.5439 107.26728,1036.6408 C 107.03322,1036.7377 106.5456,1036.2637 106.18367,1035.5875 z M 295.77809,1028.0214 C 292.16715,1026.8409 289.07028,1024.0717 287.277,1020.4199 C 285.87434,1017.5636 285.68742,1016.5494 285.68742,1011.7954 C 285.68742,1007.0366 285.87362,1006.0287 287.28301,1003.1586 C 290.69562,996.20908 297.77601,993.28975 305.57504,995.61653 C 311.58451,997.40941 315.28625,1002.663 315.85693,1010.2089 C 316.64816,1020.6701 310.9975,1028.0225 301.73424,1028.5846 C 299.63909,1028.7118 297.17803,1028.479 295.77809,1028.0214 z M 306.80348,1022.782 C 309.54661,1020.5953 310.95769,1017.7109 311.33844,1013.5118 C 311.92217,1007.0742 309.52625,1001.8765 305.03492,999.83685 C 299.17215,997.17446 292.61232,1000.1695 290.77806,1006.3461 C 287.75659,1016.5205 292.81062,1025.2358 301.41596,1024.6903 C 303.99171,1024.5271 305.11224,1024.1302 306.80348,1022.782 z M 321.69876,1011.7954 L 321.69876,995.34926 L 323.96719,995.34926 L 326.23563,995.34926 L 326.23563,1002.1546 L 326.23563,1008.9599 L 334.74224,1008.9599 L 343.24886,1008.9599 L 343.24886,1002.1546 L 343.24886,995.34926 L 345.51729,995.34926 L 347.78572,995.34926 L 347.78572,1011.7954 L 347.78572,1028.2415 L 345.51729,1028.2415 L 343.24886,1028.2415 L 343.24886,1020.5856 L 343.24886,1012.9296 L 334.74224,1012.9296 L 326.23563,1012.9296 L 326.23563,1020.5856 L 326.23563,1028.2415 L 323.96719,1028.2415 L 321.69876,1028.2415 L 321.69876,1011.7954 z M -159.04232,915.73404 C -162.65326,914.55353 -165.75013,911.78439 -167.54341,908.13258 C -168.94608,905.27622 -169.13299,904.26205 -169.13299,899.50805 C -169.13299,894.74923 -168.9468,893.74135 -167.5374,890.87123 C -164.1248,883.92175 -157.04441,881.00241 -149.24538,883.32919 C -143.23589,885.12208 -139.53415,890.37567 -138.96346,897.92152 C -138.17227,908.38277 -143.82294,915.73512 -153.08618,916.29729 C -155.18132,916.42444 -157.64239,916.1917 -159.04232,915.73404 z M -148.01694,910.49467 C -145.27381,908.30799 -143.86273,905.42353 -143.48197,901.22451 C -142.89823,894.7869 -145.29417,889.58911 -149.7855,887.54952 C -155.64827,884.88712 -162.20809,887.88215 -164.04236,894.05878 C -167.06383,904.23317 -162.00979,912.94847 -153.40446,912.40301 C -150.8287,912.23974 -149.70818,911.84283 -148.01694,910.49467 z M -200.60747,899.50805 L -200.60747,883.06193 L -198.33904,883.06193 L -196.07061,883.06193 L -196.07061,889.86722 L -196.07061,896.67251 L -187.564,896.67251 L -179.05738,896.67251 L -179.05738,889.86722 L -179.05738,883.06193 L -176.78895,883.06193 L -174.52052,883.06193 L -174.52052,899.50805 L -174.52052,915.95418 L -176.78895,915.95418 L -179.05738,915.95418 L -179.05738,908.29822 L -179.05738,900.64227 L -187.564,900.64227 L -196.07061,900.64227 L -196.07061,908.29822 L -196.07061,915.95418 L -198.33904,915.95418 L -200.60747,915.95418 L -200.60747,899.50805 z" id="path2525" style="fill:#000000"/>
  </g>
</svg>
