<?xml version="1.0" encoding="UTF-8" standalone="no"?>
<svg xmlns:dc="http://purl.org/dc/elements/1.1/" xmlns:cc="http://creativecommons.org/ns#" xmlns:rdf="http://www.w3.org/1999/02/22-rdf-syntax-ns#" xmlns:svg="http://www.w3.org/2000/svg" xmlns="http://www.w3.org/2000/svg" xmlns:sodipodi="http://sodipodi.sourceforge.net/DTD/sodipodi-0.dtd" xmlns:inkscape="http://www.inkscape.org/namespaces/inkscape" width="197.84874" height="207.52328" viewBox="0 0 158.279 166.01864" id="svg2" version="1.1" inkscape:version="0.48.4 r9939" sodipodi:docname="Molecule_gallic_acid.svg">
  <metadata id="metadata108">
    <rdf:RDF>
      <cc:Work rdf:about="">
        <dc:format>image/svg+xml</dc:format>
        <dc:type rdf:resource="http://purl.org/dc/dcmitype/StillImage"/>
      </cc:Work>
    </rdf:RDF>
  </metadata>
  <defs id="defs106"/>
  <sodipodi:namedview pagecolor="#ffffff" bordercolor="#666666" borderopacity="1" objecttolerance="10" gridtolerance="10" guidetolerance="10" inkscape:pageopacity="1" inkscape:pageshadow="2" inkscape:window-width="1447" inkscape:window-height="792" id="namedview104" showgrid="false" inkscape:showpageshadow="false" units="mm" inkscape:document-units="mm" fit-margin-top="1" fit-margin-left="1" fit-margin-bottom="1" fit-margin-right="1" inkscape:zoom="2.2610779" inkscape:cx="72.434441" inkscape:cy="114.83682" inkscape:window-x="310" inkscape:window-y="61" inkscape:window-maximized="0" inkscape:current-layer="g3085" inkscape:snap-object-midpoints="false" showguides="true" inkscape:guide-bbox="true" inkscape:snap-bbox="true" inkscape:snap-bbox-edge-midpoints="false" inkscape:bbox-paths="true" inkscape:snap-global="true" inkscape:snap-bbox-midpoints="true">
    <sodipodi:guide orientation="1,0" position="67.30098,185.88388" id="guide3845"/>
    <sodipodi:guide orientation="0,1" position="67.30098,185.88388" id="guide3847"/>
    <sodipodi:guide orientation="0,1" position="67.30098,176.21227" id="guide3853"/>
    <sodipodi:guide orientation="1,0" position="76.21311,185.88388" id="guide3855"/>
    <sodipodi:guide orientation="1,0" position="130.51569,185.88388" id="guide3857"/>
    <sodipodi:guide orientation="1,0" position="121.60362,185.88388" id="guide3859"/>
    <sodipodi:guide orientation="0,1" position="161.84058,58.044152" id="guide3861"/>
    <sodipodi:guide orientation="1,0" position="35.693882,58.044152" id="guide3863"/>
    <sodipodi:guide orientation="1,0" position="161.84058,58.044152" id="guide3865"/>
    <sodipodi:guide orientation="0,1" position="161.84058,67.715924" id="guide3867"/>
    <sodipodi:guide orientation="1,0" position="44.606011,58.044152" id="guide3869"/>
    <sodipodi:guide orientation="1,0" position="152.92851,58.044152" id="guide3871"/>
    <sodipodi:guide orientation="0,1" position="98.951181,22.647056" id="guide3873"/>
    <sodipodi:guide orientation="1,0" position="98.908079,21.639547" id="guide3875"/>
    <sodipodi:guide orientation="0,1" position="98.908079,31.311319" id="guide3877"/>
  </sodipodi:namedview>
  <g id="g3085" transform="matrix(0.90306,0,0,0.90306,5.3276215,7.0143896)">
    <g id="g4066">
      <g transform="matrix(1.11628,0,0,1.11628,49.628873,73.82964)" style="fill:#161413;fill-rule:nonzero;stroke:none" id="g4">
        <path d="m 1.3496,32.2998 c 0,0 -0.6494,0.4 -0.6494,0.4 0,0 -0.7002,-0.4 -0.7002,-0.4 C 0,32.2998 0,0 0,0 c 0,0 1.3496,0.7998 1.3496,0.7998 0,0 0,31.5 0,31.5 z" id="path6" inkscape:connector-curvature="0"/>
      </g>
      <g transform="matrix(1.11628,0,0,1.11628,56.158664,78.01569)" style="fill:#161413;fill-rule:nonzero;stroke:none" id="g8">
        <path d="m 1.3506,25.5998 c 0,0 -1.3506,0 -1.3506,0 C 0,25.5998 0,0 0,0 c 0,0 1.3506,0 1.3506,0 0,0 0,25.5998 0,25.5998 z" id="path10" inkscape:connector-curvature="0"/>
      </g>
      <g transform="matrix(1.11628,0,0,1.11628,50.410492,109.88525)" style="fill:#161413;fill-rule:nonzero;stroke:none" id="g12">
        <path d="m 27.9502,15.8 c 0,0 0,0.75 0,0.75 0,0 -0.6504,0.4 -0.6504,0.4 C 27.2998,16.95 0,1.2 0,1.2 0,1.2 0,0.4 0,0.4 0,0.4 0.6494,0 0.6494,0 c 0,0 27.3008,15.8 27.3008,15.8 z" id="path14" inkscape:connector-curvature="0"/>
      </g>
      <g transform="matrix(1.11628,0,0,1.11628,81.610741,109.88525)" style="fill:#161413;fill-rule:nonzero;stroke:none" id="g16">
        <path d="m 27.2996,0 c 0,0 0.7,0.4 0.7,0.4 0,0 0,0.8 0,0.8 0,0 -27.3004,15.75 -27.3004,15.75 0,0 -0.6992,-0.4 -0.6992,-0.4 0,0 0,-0.75 0,-0.75 C 0,15.8 27.2996,0 27.2996,0 z" id="path18" inkscape:connector-curvature="0"/>
      </g>
      <path inkscape:connector-curvature="0" id="path22" d="m 106.00102,105.92246 c 0,0 0.72558,1.33954 0.72558,1.33954 0,0 -24.725607,14.28838 -24.725607,14.28838 0,0 -0.726029,-1.33954 -0.726029,-1.33954 0,0 24.726056,-14.28838 24.726056,-14.28838 z" style="fill:#161413;fill-rule:nonzero;stroke:none"/>
      <g transform="matrix(1.11628,0,0,1.11628,112.08474,73.82964)" style="fill:#161413;fill-rule:nonzero;stroke:none" id="g24">
        <path d="M 0,0.7998 C 0,0.7998 1.35,0 1.35,0 c 0,0 0,32.2998 0,32.2998 0,0 -0.65,0.4 -0.65,0.4 0,0 -0.7,-0.4 -0.7,-0.4 0,0 0,-31.5 0,-31.5 z" id="path26" inkscape:connector-curvature="0"/>
      </g>
      <g transform="matrix(1.11628,0,0,1.11628,81.610741,55.801271)" style="fill:#161413;fill-rule:nonzero;stroke:none" id="g28">
        <path d="m 0,1.2002 c 0,0 0,-0.7998 0,-0.7998 C 0,0.4004 0.6992,0 0.6992,0 c 0,0 27.9504,16.1504 27.9504,16.1504 0,0 -1.35,0.7998 -1.35,0.7998 0,0 -27.2996,-15.75 -27.2996,-15.75 z" id="path30" inkscape:connector-curvature="0"/>
      </g>
      <g transform="matrix(1.11628,0,0,1.11628,81.274964,63.112682)" style="fill:#161413;fill-rule:nonzero;stroke:none" id="g32">
        <path d="M 0,1.1504 C 0,1.1504 0.6504,0 0.6504,0 c 0,0 22.15,12.8008 22.15,12.8008 0,0 -0.65,1.1494 -0.65,1.1494 C 22.1504,13.9502 0,1.1504 0,1.1504 z" id="path34" inkscape:connector-curvature="0"/>
      </g>
      <g transform="matrix(1.11628,0,0,1.11628,49.628873,55.801271)" style="fill:#161413;fill-rule:nonzero;stroke:none" id="g36">
        <path d="M 1.3496,16.9502 C 1.3496,16.9502 0,16.1504 0,16.1504 0,16.1504 28,0 28,0 c 0,0 0.6504,0.4004 0.6504,0.4004 0,0 0,0.7998 0,0.7998 0,0 -27.3008,15.75 -27.3008,15.75 z" id="path38" inkscape:connector-curvature="0"/>
      </g>
      <g transform="matrix(1.11628,0,0,1.11628,80.884713,19.74565)" style="fill:#161413;fill-rule:nonzero;stroke:none" id="g40">
        <path d="m 0,0 c 0,0 1.3496,0.7998 1.3496,0.7998 0,0 0,31.5 0,31.5 0,0 -0.6992,0.4004 -0.6992,0.4004 C 0.6504,32.7002 0,32.2998 0,32.2998 0,32.2998 0,0 0,0 z" id="path42" inkscape:connector-curvature="0"/>
      </g>
      <g transform="matrix(1.11628,0,0,1.11628,59.954463,11.03889)" style="fill:#161413;fill-rule:nonzero;stroke:none" id="g48">
        <path d="M 0,1.1494 C 0,1.1494 0.7002,0 0.7002,0 c 0,0 19.0498,11 19.0498,11 0,0 -0.6504,1.1494 -0.6504,1.1494 0,0 -19.0996,-11 -19.0996,-11 z" id="path50" inkscape:connector-curvature="0"/>
      </g>
      <g transform="matrix(1.11628,0,0,1.11628,63.192121,5.4018989)" style="fill:#161413;fill-rule:nonzero;stroke:none" id="g52">
        <path d="M 0,1.1494 C 0,1.1494 0.6992,0 0.6992,0 c 0,0 19.0508,11 19.0508,11 0,0 -0.6504,1.1494 -0.6504,1.1494 0,0 -19.0996,-11 -19.0996,-11 z" id="path54" inkscape:connector-curvature="0"/>
      </g>
      <g transform="matrix(1.11628,0,0,1.11628,80.884713,8.1925989)" style="fill:#161413;fill-rule:nonzero;stroke:none" id="g64">
        <path d="m 17.9,0 c 0,0 0.7,1.1992 0.7,1.1992 0,0 -17.2504,9.9502 -17.2504,9.9502 C 1.3496,11.1494 0,10.3496 0,10.3496 0,10.3496 17.9,0 17.9,0 z" id="path66" inkscape:connector-curvature="0"/>
      </g>
      <g transform="matrix(1.11628,0,0,1.11628,29.703721,109.88525)" style="fill:#161413;fill-rule:nonzero;stroke:none" id="g76">
        <path d="M 0.6494,11.5 C 0.6494,11.5 0,10.35 0,10.35 0,10.35 17.8496,0 17.8496,0 c 0,0 0.7002,0.4 0.7002,0.4 0,0 0,0.8 0,0.8 0,0 -17.9004,10.3 -17.9004,10.3 z" id="path78" inkscape:connector-curvature="0"/>
      </g>
      <g transform="matrix(1.11628,0,0,1.11628,80.884713,128.35969)" style="fill:#161413;fill-rule:nonzero;stroke:none" id="g88">
        <path d="m 1.3496,21.25 c 0,0 -1.3496,0 -1.3496,0 C 0,21.25 0,0.4 0,0.4 0,0.4 0.6504,0 0.6504,0 c 0,0 0.6992,0.4 0.6992,0.4 0,0 0,20.85 0,20.85 z" id="path90" inkscape:connector-curvature="0"/>
      </g>
      <g transform="matrix(0.99999711,0,0,0.99999711,43.48638,-4.6284231)" style="fill:#161413;fill-rule:evenodd;stroke:none" id="g44">
        <path d="M 7.8731,0 C 3.1846,0 0,3.4541 0,8.56742 c 0,5.11418 3.1846,8.56828 7.8955,8.56828 1.9737,0 3.7452,-0.6054 5.0684,-1.7265 1.7725,-1.503 2.8262,-4.0381 2.8262,-6.70708 C 15.7901,3.43164 12.6729,0 7.8731,0 z m 0,1.83887 c 3.5439,0 5.831,2.69141 5.831,6.81835 0,3.94828 -2.3545,6.63968 -5.8086,6.63968 -3.4765,0 -5.8095,-2.6914 -5.8095,-6.72948 0,-4.03714 2.333,-6.72855 5.7871,-6.72855 z" id="path46" inkscape:connector-curvature="0"/>
      </g>
      <g id="g3879" transform="matrix(0.99999711,0,0,0.99999711,2.3364795,-7.4630607)">
        <g id="g56" style="fill:#161413;fill-rule:evenodd;stroke:none" transform="translate(101.82632,2.8346457)">
          <path inkscape:connector-curvature="0" id="path58" d="M 7.873,0 C 3.184,0 0,3.4541 0,8.56742 c 0,5.11418 3.184,8.56828 7.895,8.56828 1.974,0 3.745,-0.6054 5.068,-1.7265 1.773,-1.503 2.827,-4.0381 2.827,-6.70708 C 15.79,3.43164 12.672,0 7.873,0 z m 0,1.83887 c 3.544,0 5.831,2.69141 5.831,6.81835 0,3.94828 -2.355,6.63968 -5.809,6.63968 -3.477,0 -5.81,-2.6914 -5.81,-6.72948 0,-4.03714 2.333,-6.72855 5.788,-6.72855 z"/>
        </g>
        <g id="g60" style="fill:#161413;fill-rule:evenodd;stroke:none" transform="translate(120.08432,3.1032057)">
          <path inkscape:connector-curvature="0" id="path62" d="m 10.498,8.90526 c 0,0 0,7.44634 0,7.44634 0,0 2.086,0 2.086,0 0,0 0,-16.3516 0,-16.3516 0,0 -2.086,0 -2.086,0 0,0 0,7.06543 0,7.06543 0,0 -8.412,0 -8.412,0 0,0 0,-7.06543 0,-7.06543 C 2.086,0 0,0 0,0 c 0,0 0,16.3516 0,16.3516 0,0 2.109,0 2.109,0 0,0 0,-7.44634 0,-7.44634 0,0 8.389,0 8.389,0 z"/>
        </g>
      </g>
      <g id="g3833" transform="matrix(0.99999711,0,0,0.99999711,-5.5952246,3.7133959)">
        <g id="g68" style="fill:#161413;fill-rule:evenodd;stroke:none" transform="translate(2.8346457,116.35276)">
          <path inkscape:connector-curvature="0" id="path70" d="m 10.4981,8.906 c 0,0 0,7.446 0,7.446 0,0 2.0859,0 2.0859,0 0,0 0,-16.352 0,-16.352 0,0 -2.0859,0 -2.0859,0 0,0 0,7.066 0,7.066 0,0 -8.41216,0 -8.41216,0 0,0 0,-7.066 0,-7.066 C 2.08594,0 0,0 0,0 c 0,0 0,16.352 0,16.352 0,0 2.1084,0 2.1084,0 0,0 0,-7.446 0,-7.446 0,0 8.3897,0 8.3897,0 z"/>
        </g>
        <g id="g72" style="fill:#161413;fill-rule:evenodd;stroke:none" transform="translate(17.825816,116.08476)">
          <path inkscape:connector-curvature="0" id="path74" d="M 7.8731,0 C 3.1846,0 0,3.454 0,8.567 c 0,5.115 3.1846,8.569 7.8955,8.569 1.9737,0 3.7452,-0.606 5.0684,-1.727 1.7725,-1.503 2.8262,-4.038 2.8262,-6.707 C 15.7901,3.432 12.6729,0 7.8731,0 z m 0,1.839 c 3.5439,0 5.831,2.691 5.831,6.818 0,3.948 -2.3545,6.64 -5.8086,6.64 -3.4765,0 -5.8095,-2.692 -5.8095,-6.73 0,-4.037 2.333,-6.728 5.7871,-6.728 z"/>
        </g>
      </g>
      <g id="g3821" transform="matrix(0.99999711,0,0,0.99999711,0.04118134,7.4635196)">
        <g id="g80" style="fill:#161413;fill-rule:evenodd;stroke:none" transform="translate(73.825816,148.33476)">
          <path inkscape:connector-curvature="0" id="path82" d="M 7.8731,0 C 3.1846,0 0,3.454 0,8.567 c 0,5.115 3.1846,8.569 7.8955,8.569 1.9737,0 3.7452,-0.606 5.0684,-1.727 1.7725,-1.503 2.8262,-4.038 2.8262,-6.707 C 15.7901,3.432 12.6729,0 7.8731,0 z m 0,1.839 c 3.5439,0 5.831,2.691 5.831,6.818 0,3.948 -2.3545,6.64 -5.8086,6.64 -3.4765,0 -5.8095,-2.692 -5.8095,-6.73 0,-4.037 2.333,-6.728 5.7871,-6.728 z"/>
        </g>
        <g id="g84" style="fill:#161413;fill-rule:evenodd;stroke:none" transform="translate(92.084616,148.60276)">
          <path inkscape:connector-curvature="0" id="path86" d="m 10.4977,8.906 c 0,0 0,7.446 0,7.446 0,0 2.086,0 2.086,0 0,0 0,-16.352 0,-16.352 0,0 -2.086,0 -2.086,0 0,0 0,7.066 0,7.066 0,0 -8.4117,0 -8.4117,0 0,0 0,-7.066 0,-7.066 C 2.086,0 0,0 0,0 c 0,0 0,16.352 0,16.352 0,0 2.1084,0 2.1084,0 0,0 0,-7.446 0,-7.446 0,0 8.3893,0 8.3893,0 z"/>
        </g>
      </g>
      <g id="g3827" transform="matrix(0.99999711,0,0,0.99999711,5.5633269,3.7133959)">
        <g id="g92" style="fill:#161413;fill-rule:evenodd;stroke:none" transform="translate(129.57632,116.08476)">
          <path inkscape:connector-curvature="0" id="path94" d="M 7.873,0 C 3.184,0 0,3.454 0,8.567 c 0,5.115 3.184,8.569 7.895,8.569 1.974,0 3.745,-0.606 5.068,-1.727 C 14.736,13.906 15.79,11.371 15.79,8.702 15.79,3.432 12.672,0 7.873,0 z m 0,1.839 c 3.544,0 5.831,2.691 5.831,6.818 0,3.948 -2.355,6.64 -5.809,6.64 -3.477,0 -5.81,-2.692 -5.81,-6.73 0,-4.037 2.333,-6.728 5.788,-6.728 z"/>
        </g>
        <g id="g96" style="fill:#161413;fill-rule:evenodd;stroke:none" transform="translate(148.08432,116.35276)">
          <path inkscape:connector-curvature="0" id="path98" d="m 10.498,8.906 c 0,0 0,7.446 0,7.446 0,0 2.086,0 2.086,0 0,0 0,-16.352 0,-16.352 0,0 -2.086,0 -2.086,0 0,0 0,7.066 0,7.066 0,0 -8.412,0 -8.412,0 0,0 0,-7.066 0,-7.066 C 2.086,0 0,0 0,0 c 0,0 0,16.352 0,16.352 0,0 2.109,0 2.109,0 0,0 0,-7.446 0,-7.446 0,0 8.389,0 8.389,0 z"/>
        </g>
      </g>
      <g transform="matrix(1.11628,0,0,1.11628,112.86614,109.88525)" style="fill:#161413;fill-rule:nonzero;stroke:none" id="g100">
        <path d="m 18.55,10.35 c 0,0 -0.65,1.15 -0.65,1.15 C 17.9,11.5 0,1.2 0,1.2 0,1.2 0,0.4 0,0.4 0,0.4 0.65,0 0.65,0 c 0,0 17.9,10.35 17.9,10.35 z" id="path102" inkscape:connector-curvature="0"/>
      </g>
    </g>
  </g>
</svg>
