<?xml version="1.0" encoding="UTF-8" standalone="no"?>
<!-- Converted by misc2svg (http://www.network-science.de/tools/misc2svg/) -->
<svg xmlns:dc="http://purl.org/dc/elements/1.1/" xmlns:cc="http://creativecommons.org/ns#" xmlns:rdf="http://www.w3.org/1999/02/22-rdf-syntax-ns#" xmlns:svg="http://www.w3.org/2000/svg" xmlns="http://www.w3.org/2000/svg" xmlns:sodipodi="http://sodipodi.sourceforge.net/DTD/sodipodi-0.dtd" xmlns:inkscape="http://www.inkscape.org/namespaces/inkscape" width="200.06985" height="93.068703" viewBox="0 0 160.05588 74.454957" version="1.1" id="svg2" inkscape:version="0.48.4 r9939" sodipodi:docname="Molecule_laevulinic_acid.svg">
  <metadata id="metadata46">
    <rdf:RDF>
      <cc:Work rdf:about="">
        <dc:format>image/svg+xml</dc:format>
        <dc:type rdf:resource="http://purl.org/dc/dcmitype/StillImage"/>
      </cc:Work>
    </rdf:RDF>
  </metadata>
  <sodipodi:namedview pagecolor="#ffffff" bordercolor="#666666" borderopacity="1" objecttolerance="10" gridtolerance="10" guidetolerance="10" inkscape:pageopacity="1" inkscape:pageshadow="2" inkscape:window-width="1071" inkscape:window-height="480" id="namedview44" showgrid="false" units="mm" inkscape:document-units="mm" fit-margin-top="1" fit-margin-left="1" fit-margin-bottom="1" fit-margin-right="1" inkscape:showpageshadow="false" inkscape:zoom="1.4142136" inkscape:cx="78.050515" inkscape:cy="45.216549" inkscape:window-x="692" inkscape:window-y="303" inkscape:window-maximized="0" inkscape:current-layer="svg2"/>
  <defs id="defs4">
    <clipPath id="clip1">
      <path d="m 0,156.25 298.75,0 L 298.75,0 0,0 0,156.25 z m 0,0" id="path7" inkscape:connector-curvature="0"/>
    </clipPath>
  </defs>
  <g id="g2999" transform="matrix(0.5331,0,0,0.5331,1.323496,-3.2605908)">
    <path inkscape:connector-curvature="0" id="path12" d="m 66.502614,22.820287 c 0,-3.554688 0.957032,-6.335939 2.871094,-8.359376 1.914063,-2.015625 4.386719,-3.027344 7.421875,-3.027344 1.976563,0 3.761719,0.480469 5.351563,1.425781 1.601562,0.9375 2.816406,2.261719 3.652344,3.964844 0.828124,1.695313 1.25,3.613283 1.25,5.76172 0,2.179687 -0.445313,4.121094 -1.328126,5.839844 -0.875,1.71875 -2.117187,3.023437 -3.730468,3.90625 -1.617188,0.886719 -3.355469,1.328125 -5.214844,1.328125 -2.023438,0 -3.828125,-0.488282 -5.429688,-1.464844 -1.59375,-0.976562 -2.792968,-2.308594 -3.613281,-4.003906 -0.820312,-1.691406 -1.230469,-3.480469 -1.230469,-5.371094 z m 2.929688,0.05859 c 0,2.578125 0.695312,4.621094 2.089844,6.113281 1.390625,1.484375 3.136718,2.226563 5.234375,2.226563 2.148437,0 3.910156,-0.746094 5.292969,-2.246094 1.375,-1.507813 2.070312,-3.644532 2.070312,-6.40625 0,-1.742188 -0.304688,-3.265625 -0.898438,-4.570314 -0.585937,-1.3125 -1.453124,-2.328125 -2.597656,-3.046875 -1.132812,-0.714844 -2.402344,-1.074218 -3.808594,-1.074218 -2.023437,0 -3.757812,0.695312 -5.214843,2.070312 -1.445313,1.382812 -2.167969,3.691407 -2.167969,6.933595 z m 0,0" style="fill:#000000;fill-opacity:1;fill-rule:nonzero;stroke:none"/>
    <path inkscape:connector-curvature="0" id="path14" d="m 79.369802,65.502615 2.125,0 0,-29.027069 -2.125,0 0,29.027069 z m 0,0" style="fill:#000000;fill-opacity:1;fill-rule:nonzero;stroke:none"/>
    <path inkscape:connector-curvature="0" id="path16" d="m 71.932302,65.502615 2.125,0 0,-29.027069 -2.125,0 0,29.027069 z m 0,0" style="fill:#000000;fill-opacity:1;fill-rule:nonzero;stroke:none"/>
    <path inkscape:connector-curvature="0" id="path18" d="m 2.8346457,99.127615 0,-21.484375 2.851562,0 0,8.828125 11.1523443,0 0,-8.828125 2.851562,0 0,21.484375 -2.851562,0 0,-10.117188 -11.1523443,0 0,10.117188 -2.851562,0 z m 0,0" style="fill:#000000;fill-opacity:1;fill-rule:nonzero;stroke:none"/>
    <path inkscape:connector-curvature="0" id="path20" d="m 23.537771,88.658865 c 0,-3.554688 0.957031,-6.335938 2.871093,-8.359375 1.914063,-2.015625 4.382813,-3.027344 7.421876,-3.027344 1.976562,0 3.757812,0.480469 5.351562,1.425781 1.601562,0.9375 2.816406,2.261719 3.652344,3.964844 0.828125,1.695313 1.25,3.613282 1.25,5.761719 0,2.179687 -0.445313,4.121094 -1.328125,5.839844 -0.875,1.71875 -2.121094,3.023441 -3.730469,3.906251 -1.617188,0.88672 -3.355469,1.32812 -5.214844,1.32812 -2.023437,0 -3.828125,-0.48828 -5.429687,-1.46484 -1.59375,-0.97656 -2.792969,-2.308594 -3.613281,-4.003906 -0.820313,-1.691406 -1.230469,-3.480469 -1.230469,-5.371094 z m 2.929687,0.05859 c 0,2.578125 0.691406,4.621094 2.089844,6.113281 1.390625,1.484375 3.132812,2.226569 5.234375,2.226569 2.148437,0 3.910156,-0.7461 5.292969,-2.2461 1.375,-1.507813 2.070312,-3.644532 2.070312,-6.40625 0,-1.742188 -0.304687,-3.265625 -0.898437,-4.570313 -0.585938,-1.3125 -1.457031,-2.328125 -2.597657,-3.046875 -1.132812,-0.714844 -2.402343,-1.074218 -3.808593,-1.074218 -2.023438,0 -3.761719,0.695312 -5.214844,2.070312 -1.445313,1.382812 -2.167969,3.691406 -2.167969,6.933594 z m 0,0" style="fill:#000000;fill-opacity:1;fill-rule:nonzero;stroke:none"/>
    <path inkscape:connector-curvature="0" id="path22" d="m 45.994802,82.315115 -1.0625,-1.8125 31.8125,-18.375 0,2.4375 -30.75,17.75 z m 0,0" style="fill:#000000;fill-opacity:1;fill-rule:nonzero;stroke:none"/>
    <path inkscape:connector-curvature="0" id="path24" d="m 119.6823,86.940115 0,2.4375 -42.937498,-24.8125 0,-2.4375 42.937498,24.8125 z m 0,0" style="fill:#000000;fill-opacity:1;fill-rule:nonzero;stroke:none"/>
    <path inkscape:connector-curvature="0" id="path26" d="m 162.6823,62.127615 0,2.4375 -43,24.8125 0,-2.4375 43,-24.8125 z m 0,0" style="fill:#000000;fill-opacity:1;fill-rule:nonzero;stroke:none"/>
    <path inkscape:connector-curvature="0" id="path28" d="m 205.6198,86.940115 0,2.4375 -42.9375,-24.8125 0,-2.4375 42.9375,24.8125 z m 0,0" style="fill:#000000;fill-opacity:1;fill-rule:nonzero;stroke:none"/>
    <path inkscape:connector-curvature="0" id="path30" d="m 255.19402,66.776053 2.85156,0.722656 c -0.60156,2.332031 -1.67578,4.117187 -3.22266,5.351562 -1.55468,1.226563 -3.44531,1.835938 -5.68359,1.835938 -2.30469,0 -4.19141,-0.46875 -5.64453,-1.40625 -1.44531,-0.949219 -2.54688,-2.316406 -3.30078,-4.101563 -0.75781,-1.796875 -1.13281,-3.714843 -1.13281,-5.761719 0,-2.234374 0.41796,-4.1875 1.26953,-5.859374 0.85937,-1.664063 2.07422,-2.929688 3.65234,-3.789063 1.57422,-0.859375 3.30859,-1.289063 5.21484,-1.289063 2.14844,0 3.94922,0.546876 5.41016,1.640626 1.46875,1.09375 2.48828,2.632812 3.06641,4.609374 l -2.79297,0.664063 c -0.50781,-1.5625 -1.23828,-2.699219 -2.1875,-3.417969 -0.9375,-0.714844 -2.125,-1.074218 -3.55469,-1.074218 -1.65625,0 -3.03516,0.398437 -4.14062,1.191406 -1.10938,0.796875 -1.89063,1.855468 -2.34375,3.183594 -0.44532,1.328124 -0.66407,2.703124 -0.66407,4.121093 0,1.824219 0.25782,3.417969 0.78125,4.785157 0.53125,1.367187 1.35547,2.390624 2.48047,3.066406 1.13281,0.664062 2.34766,0.996094 3.65235,0.996094 1.60156,0 2.94921,-0.453126 4.04296,-1.367188 1.10157,-0.921875 1.85547,-2.289062 2.2461,-4.101562 z m 0,0" style="fill:#000000;fill-opacity:1;fill-rule:nonzero;stroke:none"/>
    <path inkscape:connector-curvature="0" id="path32" d="m 261.6198,74.315115 0,-21.484375 2.85156,0 0,8.828125 11.15235,0 0,-8.828125 2.85156,0 0,21.484375 -2.85156,0 0,-10.117188 -11.15235,0 0,10.117188 -2.85156,0 z m 0,0" style="fill:#000000;fill-opacity:1;fill-rule:nonzero;stroke:none"/>
    <path inkscape:connector-curvature="0" id="path34" d="m 281.88933,76.412771 1.99219,-0.253906 c 0.21875,1.125 0.60547,1.929688 1.15234,2.421875 0.54688,0.5 1.21094,0.742187 1.99219,0.742187 0.9375,0 1.72266,-0.316406 2.36328,-0.957031 0.63281,-0.648437 0.95703,-1.449219 0.95703,-2.402343 0,-0.90625 -0.30469,-1.660157 -0.89844,-2.246094 -0.58593,-0.59375 -1.33984,-0.898438 -2.24609,-0.898438 -0.38281,0 -0.85156,0.07813 -1.40625,0.234375 l 0.21484,-1.738281 c 0.125,0.01563 0.23829,0.01953 0.33204,0.01953 0.82812,0 1.58593,-0.21875 2.26562,-0.664062 0.67188,-0.4375 1.01563,-1.117188 1.01563,-2.03125 0,-0.726563 -0.25,-1.328125 -0.74219,-1.796875 -0.5,-0.476563 -1.12891,-0.722656 -1.89453,-0.722656 -0.77344,0 -1.41797,0.246093 -1.9336,0.722656 -0.50781,0.484375 -0.83593,1.210937 -0.97656,2.1875 l -1.97266,-0.351563 c 0.23438,-1.328125 0.78125,-2.351562 1.64063,-3.085937 0.85937,-0.726563 1.92187,-1.09375 3.20312,-1.09375 0.86719,0 1.67969,0.191406 2.42188,0.566406 0.74219,0.382812 1.30859,0.894531 1.69922,1.542969 0.39062,0.65625 0.58594,1.34375 0.58594,2.070312 0,0.703125 -0.19141,1.34375 -0.56641,1.914063 -0.36719,0.5625 -0.91797,1.011718 -1.66016,1.347656 0.94532,0.226562 1.6836,0.683594 2.20703,1.386719 0.53125,0.695312 0.80079,1.554687 0.80079,2.578125 0,1.40625 -0.51954,2.609375 -1.54297,3.59375 -1.01563,0.976562 -2.30469,1.464844 -3.86719,1.464844 -1.42188,0 -2.59766,-0.417969 -3.53516,-1.269532 -0.92968,-0.84375 -1.46093,-1.9375 -1.60156,-3.28125 z m 0,0" style="fill:#000000;fill-opacity:1;fill-rule:nonzero;stroke:none"/>
    <path inkscape:connector-curvature="0" id="path36" d="m 236.6823,69.002615 1.0625,1.8125 -32.125,18.5625 0,-2.4375 31.0625,-17.9375 z m 0,0" style="fill:#000000;fill-opacity:1;fill-rule:nonzero;stroke:none"/>
    <path inkscape:connector-curvature="0" id="path38" d="m 195.44011,129.62331 c 0,-3.55469 0.95703,-6.33594 2.8711,-8.35938 1.91406,-2.01562 4.38671,-3.02734 7.42187,-3.02734 1.97656,0 3.76172,0.48047 5.35156,1.42578 1.60157,0.9375 2.81641,2.26172 3.65235,3.96485 0.82812,1.69531 1.25,3.61328 1.25,5.76171 0,2.17969 -0.44532,4.1211 -1.32813,5.83985 -0.875,1.71875 -2.11719,3.02344 -3.73047,3.90625 -1.61718,0.88672 -3.35547,1.32812 -5.21484,1.32812 -2.02344,0 -3.82813,-0.48828 -5.42969,-1.46484 -1.59375,-0.97656 -2.79297,-2.30859 -3.61328,-4.00391 -0.82031,-1.6914 -1.23047,-3.48047 -1.23047,-5.37109 z m 2.92969,0.0586 c 0,2.57813 0.69531,4.6211 2.08984,6.11328 1.39063,1.48438 3.13672,2.22657 5.23438,2.22657 2.14844,0 3.91015,-0.7461 5.29297,-2.2461 1.375,-1.50781 2.07031,-3.64453 2.07031,-6.40625 0,-1.74218 -0.30469,-3.26562 -0.89844,-4.57031 -0.58594,-1.3125 -1.45312,-2.32812 -2.59765,-3.04687 -1.13282,-0.71485 -2.40235,-1.07422 -3.8086,-1.07422 -2.02344,0 -3.75781,0.69531 -5.21484,2.07031 -1.44531,1.38281 -2.16797,3.69141 -2.16797,6.93359 z m 0,0" style="fill:#000000;fill-opacity:1;fill-rule:nonzero;stroke:none"/>
    <path inkscape:connector-curvature="0" id="path40" d="m 208.3073,115.02931 2.125,0 0,-29.026695 -2.125,0 0,29.026695 z m 0,0" style="fill:#000000;fill-opacity:1;fill-rule:nonzero;stroke:none"/>
    <path inkscape:connector-curvature="0" id="path42" d="m 200.8073,115.02897 2.125,0 0,-29.026355 -2.125,0 0,29.026355 z m 0,0" style="fill:#000000;fill-opacity:1;fill-rule:nonzero;stroke:none"/>
  </g>
</svg>
