<?xml version="1.0" encoding="UTF-8" standalone="no"?>
<!-- Generator: Adobe Illustrator 13.0.2, SVG Export Plug-In . SVG Version: 6.00 Build 14948)  -->
<svg xmlns:dc="http://purl.org/dc/elements/1.1/" xmlns:cc="http://creativecommons.org/ns#" xmlns:rdf="http://www.w3.org/1999/02/22-rdf-syntax-ns#" xmlns:svg="http://www.w3.org/2000/svg" xmlns="http://www.w3.org/2000/svg" xmlns:sodipodi="http://sodipodi.sourceforge.net/DTD/sodipodi-0.dtd" xmlns:inkscape="http://www.inkscape.org/namespaces/inkscape" version="1.1" id="Ebene_1" x="0px" y="0px" width="90.360115" height="66.395378" viewBox="0 0 90.360127 66.395378" enable-background="new 0 0 109.95 87.32" xml:space="preserve" inkscape:version="0.48.4 r9939" sodipodi:docname="Molecule_formic_acid.svg">
  <metadata id="metadata29">
    <rdf:RDF>
      <cc:Work rdf:about="">
        <dc:format>image/svg+xml</dc:format>
        <dc:type rdf:resource="http://purl.org/dc/dcmitype/StillImage"/>
      </cc:Work>
    </rdf:RDF>
  </metadata>
  <defs id="defs27"/>
  <sodipodi:namedview pagecolor="#ffffff" bordercolor="#666666" borderopacity="1" objecttolerance="10" gridtolerance="10" guidetolerance="10" inkscape:pageopacity="1" inkscape:pageshadow="2" inkscape:window-width="1006" inkscape:window-height="480" id="namedview25" showgrid="false" inkscape:showpageshadow="false" units="mm" inkscape:document-units="mm" fit-margin-top="1" fit-margin-left="1" fit-margin-bottom="1" fit-margin-right="1" inkscape:zoom="2.7027027" inkscape:cx="45.180562" inkscape:cy="35.752504" inkscape:window-x="644" inkscape:window-y="263" inkscape:window-maximized="0" inkscape:current-layer="Ebene_1"/>
  <g id="g2992" transform="matrix(0.83316,0,0,0.83316,0.59116573,-4.517494)">
    <g transform="translate(-1.4566928,-1.4586944)" id="g3">
      <path inkscape:connector-curvature="0" id="path5" d="m 72.043,73.658 c 0,-2.852 0.766,-5.084 2.297,-6.697 1.531,-1.613 3.508,-2.42 5.93,-2.42 1.586,0 3.016,0.379 4.289,1.137 1.273,0.758 2.244,1.814 2.912,3.17 0.668,1.356 1.002,2.893 1.002,4.611 0,1.742 -0.352,3.301 -1.055,4.676 -0.703,1.375 -1.699,2.416 -2.988,3.123 -1.289,0.707 -2.68,1.061 -4.172,1.061 -1.617,0 -3.063,-0.391 -4.336,-1.172 -1.273,-0.781 -2.238,-1.848 -2.895,-3.199 -0.657,-1.351 -0.984,-2.782 -0.984,-4.29 z m 2.344,0.035 c 0,2.07 0.557,3.701 1.67,4.893 1.113,1.192 2.51,1.787 4.189,1.787 1.711,0 3.119,-0.602 4.225,-1.805 1.106,-1.203 1.658,-2.91 1.658,-5.121 0,-1.398 -0.236,-2.619 -0.709,-3.662 -0.473,-1.043 -1.164,-1.852 -2.074,-2.426 -0.91,-0.574 -1.932,-0.861 -3.064,-0.861 -1.609,0 -2.994,0.553 -4.154,1.658 -1.16,1.105 -1.741,2.951 -1.741,5.537 z"/>
      <path inkscape:connector-curvature="0" id="path7" d="m 91.473,82.025 v -17.18 h 2.273 V 71.9 h 8.93 v -7.055 h 2.273 v 17.18 h -2.273 v -8.098 h -8.93 v 8.098 h -2.273 z"/>
    </g>
    <polygon transform="translate(-1.4566928,-1.4586944)" id="polygon9" points="71.679,66.532 70.829,67.982 46.079,53.732 46.079,51.732 "/>
    <g transform="translate(-1.4566928,4.6729686)" id="g11">
      <path inkscape:connector-curvature="0" id="path13" d="m 37.637,14.119 c 0,-2.852 0.766,-5.084 2.297,-6.697 1.531,-1.613 3.508,-2.42 5.93,-2.42 1.586,0 3.016,0.379 4.289,1.137 1.273,0.758 2.244,1.814 2.912,3.17 0.668,1.356 1.002,2.893 1.002,4.611 0,1.742 -0.352,3.301 -1.055,4.676 -0.703,1.375 -1.699,2.416 -2.988,3.123 -1.289,0.707 -2.68,1.061 -4.172,1.061 -1.617,0 -3.063,-0.391 -4.336,-1.172 -1.273,-0.781 -2.238,-1.848 -2.895,-3.199 -0.657,-1.351 -0.984,-2.782 -0.984,-4.29 z m 2.344,0.035 c 0,2.07 0.557,3.701 1.67,4.893 1.113,1.192 2.51,1.787 4.189,1.787 1.711,0 3.119,-0.602 4.225,-1.805 1.106,-1.203 1.658,-2.91 1.658,-5.121 0,-1.398 -0.236,-2.619 -0.709,-3.662 C 50.541,9.203 49.85,8.395 48.94,7.82 48.03,7.245 47.008,6.959 45.876,6.959 c -1.609,0 -2.994,0.553 -4.154,1.658 -1.16,1.105 -1.741,2.951 -1.741,5.537 z"/>
    </g>
    <rect id="rect15" height="23.216328" width="1.7" y="29.757982" x="40.772308"/>
    <rect id="rect17" height="23.216328" width="1.7" y="29.757982" x="46.722309"/>
    <g transform="translate(-1.4566928,-1.4586944)" id="g19">
      <path inkscape:connector-curvature="0" id="path21" d="m 5,81.976 v -17.18 h 2.273 v 7.055 h 8.93 v -7.055 h 2.273 v 17.18 h -2.273 v -8.098 h -8.93 v 8.098 H 5 z"/>
    </g>
    <polygon transform="translate(-1.4566928,-1.4586944)" id="polygon23" points="22.479,67.332 21.629,65.832 46.079,51.732 46.079,53.732 "/>
  </g>
</svg>
