<?xml version="1.0" encoding="UTF-8" standalone="no"?>
<!-- Created with Inkscape (http://www.inkscape.org/) -->
<svg xmlns:dc="http://purl.org/dc/elements/1.1/" xmlns:cc="http://creativecommons.org/ns#" xmlns:rdf="http://www.w3.org/1999/02/22-rdf-syntax-ns#" xmlns:svg="http://www.w3.org/2000/svg" xmlns="http://www.w3.org/2000/svg" xmlns:sodipodi="http://sodipodi.sourceforge.net/DTD/sodipodi-0.dtd" xmlns:inkscape="http://www.inkscape.org/namespaces/inkscape" version="1.1" width="620" height="288.13" id="svg2" inkscape:version="0.48.4 r9939" sodipodi:docname="Molecule_sinapyl_alcohol.svg">
  <sodipodi:namedview pagecolor="#ffffff" bordercolor="#666666" borderopacity="1" objecttolerance="10" gridtolerance="10" guidetolerance="10" inkscape:pageopacity="1" inkscape:pageshadow="2" inkscape:window-width="640" inkscape:window-height="480" id="namedview7" showgrid="false" inkscape:zoom="0.6" inkscape:cx="310" inkscape:cy="144.065" inkscape:window-x="63" inkscape:window-y="34" inkscape:window-maximized="0" inkscape:current-layer="svg2"/>
  <defs id="defs4"/>
  <metadata id="metadata7">
    <rdf:RDF>
      <cc:Work rdf:about="">
        <dc:format>image/svg+xml</dc:format>
        <dc:type rdf:resource="http://purl.org/dc/dcmitype/StillImage"/>
        <dc:title/>
      </cc:Work>
    </rdf:RDF>
  </metadata>
  <g transform="translate(-2017.4,-387.44)" id="layer1">
    <path d="m 2062.3,664.97 c -1.8,-0.73 -4.3,-3.99 -4.1,-5.36 0.2,-1.47 2.7,-2.07 2.7,-0.64 0,0.5 0.6,1.55 1.4,2.31 2,1.96 4.5,1.86 6.6,-0.26 2.1,-2.05 2.1,-3.63 0.2,-5.53 -1.1,-1.13 -1.9,-1.41 -3.4,-1.22 -1.8,0.21 -1.9,0.11 -1.9,-1.37 0,-1.2 0.2,-1.59 1.1,-1.59 1.7,0 3.9,-1.2 4.3,-2.33 1.2,-3.94 -5.5,-5.37 -7.6,-1.63 -1,1.76 -1.6,2 -2.8,1.19 -0.7,-0.4 -0.7,-0.76 0,-2.13 1.3,-2.48 2.9,-3.68 5.5,-4.02 5.8,-0.79 10.4,4.93 6.7,8.52 l -1.3,1.25 1.9,1.78 c 5.4,5.22 -2,14 -9.3,11.03 z m 24.8,-8.79 c -8.2,-2.67 -12.1,-15.01 -7.9,-24.76 4.3,-10.11 19.7,-11.44 24.8,-2.16 1.6,2.85 1.5,3.47 -1,4.06 -1.2,0.28 -1.6,0 -2.6,-1.73 -2.3,-4.23 -7,-5.76 -11.9,-3.88 -4.4,1.67 -6.6,5.69 -6.6,12.24 0,6.3 2,10.16 6,11.98 5.6,2.58 11.9,0 13.6,-5.59 0.4,-1.3 1.2,-1.47 3.6,-0.8 l 1.4,0.38 -1.9,3.67 c -2.6,4.92 -5.6,6.9 -11.1,7.19 -2.3,0.13 -4.8,-0.11 -6.4,-0.6 z m 33.3,0 c -1.2,-0.42 -2.9,-1.33 -4,-2.03 -7.7,-5.34 -8.8,-19.9 -2,-26.79 3.2,-3.19 5.8,-4.16 11,-4.16 5.4,0 8.1,1.19 11.3,4.88 5.4,6.34 5.2,18.08 -0.3,24.16 -3.9,4.15 -10.6,5.83 -16,3.94 z m 9.8,-4.44 c 4.5,-2.24 6.7,-7.06 6.1,-13.33 -0.5,-5.63 -2.6,-8.92 -6.7,-10.65 -5.5,-2.28 -11.7,0.2 -14.2,5.65 -1.4,3.13 -1.4,9.95 0,13.14 1.1,2.44 4.2,5.35 6.4,5.98 2.7,0.77 5.9,0.46 8.4,-0.79 z m -102.8,-11.79 0,-16.48 2,0 2,0 0,6.82 0,6.82 8.5,0 8.5,0 0,-6.82 0,-6.82 2,0 2,0 0,16.48 0,16.48 -2,0 -2,0 0,-7.67 0,-7.68 -8.5,0 -8.5,0 0,7.68 0,7.67 -2,0 -2,0 0,-16.48 z m 196,-18.25 c -17.3,-10.04 -31.9,-18.37 -32.5,-18.52 -0.5,-0.16 -10.3,5.17 -23.6,12.84 -12.5,7.21 -23.1,13.25 -23.5,13.42 -0.4,0.16 -1.1,-0.25 -1.5,-0.92 -0.7,-1.03 -0.7,-1.3 0,-1.71 0.4,-0.27 11,-6.43 23.6,-13.7 l 22.9,-13.21 0,-36.69 0,-36.69 -22.8,-13.1 -22.7,-13.11 1,-1.28 1.1,-1.28 22.3,12.91 c 12.9,7.48 22.7,12.79 23.3,12.64 0.5,-0.15 14.8,-8.34 31.9,-18.2 l 30.9,-17.92 0.2,-25.61 0.1,-25.6 1.4,0 1.4,0 0.2,25.61 0.1,25.62 32.6,18.78 32.5,18.78 0,37.57 0,37.58 31.4,18.12 c 17.2,9.98 31.7,18.13 32,18.13 0.4,0 15.2,-8.37 32.8,-18.59 17.7,-10.22 32.4,-18.49 32.7,-18.37 0.2,0.13 14.8,8.58 32.5,18.79 l 32.2,18.56 22.6,-13.07 c 12.4,-7.2 22.7,-13.01 22.7,-12.94 0.1,0.1 0.4,0.7 0.8,1.39 0.6,1.13 0.3,1.39 -2.6,3.19 -6.4,3.83 -41,23.69 -42.4,24.32 -1.2,0.57 -4.3,-1.03 -33.5,-17.9 -17.6,-10.19 -32.3,-18.52 -32.7,-18.52 -0.3,0 -14.6,8.08 -31.8,17.97 -17.1,9.88 -31.7,18.23 -32.3,18.53 -1.1,0.49 -5.8,-2.07 -33.3,-17.97 -17.7,-10.19 -32.4,-18.53 -32.8,-18.53 -0.3,0 -14.8,8.22 -32.2,18.26 -17.5,10.05 -32.1,18.36 -32.6,18.48 -0.4,0.11 -15,-8.02 -32.4,-18.06 z m 65.6,-4.46 29.9,-17.31 0,-36.72 0,-36.72 -31.3,-18.08 c -17.2,-9.94 -31.7,-18.08 -32.1,-18.08 -0.4,0 -14.8,8.13 -32,18.07 l -31.3,18.08 0,36.72 0,36.74 31.6,18.26 31.6,18.28 1.8,-0.97 c 1.1,-0.53 15.3,-8.75 31.8,-18.27 z m -33.6,7.94 c -0.6,-0.95 -0.6,-1.23 0.3,-1.74 0.5,-0.34 12.6,-7.34 26.8,-15.57 22.7,-13.11 26,-14.84 26.6,-14.05 0.3,0.49 0.7,1.16 0.7,1.49 0,0.6 -52.2,31 -53.2,31 -0.3,0 -0.8,-0.51 -1.2,-1.13 z m -55.3,-61.94 0,-31.25 1.7,0 1.7,0 0,31.25 0,31.25 -1.7,0 -1.7,0 0,-31.25 z m 82.6,-44.54 c -14,-8.16 -26.1,-15.22 -26.8,-15.68 -1.2,-0.82 -1.2,-0.91 -0.2,-2.05 1,-1.19 1.1,-1.12 27.6,14.19 14.6,8.46 26.5,15.66 26.5,16 0,0.34 -0.4,1.01 -0.7,1.49 -0.6,0.77 -4,-1.02 -26.4,-13.95 z m 103.1,106.69 c -0.6,-1.15 -0.5,-1.54 0.2,-1.96 0.4,-0.29 13.6,-7.96 29.4,-17.04 23.1,-13.4 28.7,-16.39 29.4,-15.85 0.4,0.38 0.8,1.01 0.8,1.4 0,0.4 -13.3,8.41 -29.6,17.8 l -29.6,17.07 -0.6,-1.42 z m 190.3,-6.71 c -1.2,-0.42 -3,-1.33 -4,-2.03 -7.8,-5.34 -8.8,-19.9 -2,-26.79 3.2,-3.19 5.8,-4.16 11,-4.16 5.4,0 8.1,1.19 11.3,4.88 5.4,6.34 5.2,18.08 -0.3,24.16 -3.9,4.15 -10.7,5.83 -16,3.94 z m 9.8,-4.44 c 4.5,-2.24 6.7,-7.06 6.1,-13.33 -0.6,-5.63 -2.6,-8.92 -6.8,-10.65 -5.4,-2.28 -11.6,0.2 -14.1,5.65 -1.4,3.13 -1.4,9.95 0,13.14 1.1,2.44 4.2,5.35 6.4,5.98 2.7,0.77 5.9,0.46 8.4,-0.79 z m 16.5,-11.79 0,-16.48 2,0 2,0 0,6.82 0,6.82 8.5,0 8.5,0 0,-6.82 0,-6.82 2,0 2,0 0,16.48 0,16.48 -2,0 -2,0 0,-7.67 0,-7.68 -8.5,0 -8.5,0 0,7.68 0,7.67 -2,0 -2,0 0,-16.48 z m -482,-96.27 c -1.2,-0.42 -2.9,-1.33 -4,-2.03 -7.7,-5.34 -8.8,-19.9 -2,-26.79 3.2,-3.19 5.8,-4.16 11,-4.16 5.4,0 8.1,1.19 11.3,4.88 5.4,6.34 5.2,18.08 -0.3,24.16 -3.9,4.15 -10.6,5.83 -16,3.94 z m 9.8,-4.44 c 4.5,-2.24 6.7,-7.06 6.1,-13.33 -0.5,-5.63 -2.6,-8.92 -6.7,-10.65 -5.5,-2.28 -11.7,0.2 -14.2,5.65 -1.4,3.13 -1.4,9.95 0,13.14 1.1,2.44 4.2,5.35 6.4,5.98 2.7,0.77 5.9,0.46 8.4,-0.79 z m -51.1,-11.79 0,-16.48 2,0 2,0 0,6.82 0,6.82 8.5,0 8.5,0 0,-6.82 0,-6.82 2,0 2,0 0,16.48 0,16.48 -2,0 -2,0 0,-7.67 0,-7.68 -8.5,0 -8.5,0 0,7.68 0,7.67 -2,0 -2,0 0,-16.48 z m 264.4,-50.55 c -1.7,-0.73 -4.2,-3.99 -4.1,-5.36 0.3,-1.47 2.8,-2.06 2.8,-0.64 0,0.5 0.6,1.55 1.4,2.31 1.9,1.96 4.5,1.86 6.6,-0.26 2,-2.05 2.1,-3.63 0.2,-5.53 -1.1,-1.13 -1.9,-1.4 -3.5,-1.22 -1.8,0.21 -1.9,0.11 -1.9,-1.37 0,-1.19 0.3,-1.59 1.2,-1.59 1.7,0 3.9,-1.2 4.2,-2.33 1.3,-3.94 -5.4,-5.37 -7.5,-1.63 -1.1,1.76 -1.6,2 -2.9,1.19 -0.7,-0.4 -0.6,-0.76 0.1,-2.12 1.3,-2.49 2.9,-3.69 5.4,-4.03 5.9,-0.79 10.4,4.94 6.8,8.52 l -1.3,1.26 1.9,1.77 c 5.4,5.22 -2,14 -9.4,11.03 z m -93,-8.79 c -1.2,-0.42 -2.9,-1.34 -4,-2.03 -7.7,-5.34 -8.8,-19.9 -1.9,-26.79 3.1,-3.19 5.8,-4.16 10.9,-4.15 5.4,0 8.2,1.18 11.3,4.87 5.4,6.34 5.3,18.09 -0.3,24.16 -3.9,4.15 -10.6,5.83 -16,3.94 z m 9.9,-4.44 c 4.4,-2.24 6.6,-7.06 6,-13.33 -0.5,-5.62 -2.6,-8.92 -6.7,-10.65 -5.5,-2.28 -11.7,0.2 -14.2,5.66 -1.4,3.12 -1.4,9.94 0,13.13 1.1,2.45 4.2,5.35 6.4,5.99 2.7,0.76 6,0.46 8.5,-0.8 z m 24.4,4.44 c -8.1,-2.67 -12.1,-15.01 -7.9,-24.76 4.4,-10.11 19.8,-11.44 24.9,-2.16 1.6,2.85 1.4,3.47 -1.1,4.06 -1.2,0.28 -1.6,0 -2.6,-1.73 -2.3,-4.23 -7,-5.76 -11.9,-3.88 -4.4,1.67 -6.5,5.69 -6.5,12.24 0,6.3 1.9,10.16 5.9,11.98 5.7,2.58 12,0 13.7,-5.59 0.3,-1.29 1.2,-1.47 3.6,-0.79 l 1.3,0.37 -1.9,3.67 c -2.6,4.92 -5.6,6.9 -11.1,7.2 -2.3,0.12 -4.8,-0.12 -6.4,-0.61 z m 24.4,-16.23 0,-16.48 2,0 2,0 0,6.82 0,6.82 8.5,0 8.5,0 0,-6.82 0,-6.82 2,0 2,0 0,16.48 0,16.48 -2,0 -2,0 0,-7.67 0,-7.67 -8.5,0 -8.5,0 0,7.67 0,7.67 -2,0 -2,0 0,-16.48 z" id="path3009" style="fill:#000000"/>
  </g>
</svg>
