<?xml version="1.0" encoding="UTF-8" standalone="no"?>
<!-- Created with Inkscape (http://www.inkscape.org/) -->
<svg xmlns:dc="http://purl.org/dc/elements/1.1/" xmlns:cc="http://creativecommons.org/ns#" xmlns:rdf="http://www.w3.org/1999/02/22-rdf-syntax-ns#" xmlns:svg="http://www.w3.org/2000/svg" xmlns="http://www.w3.org/2000/svg" xmlns:sodipodi="http://sodipodi.sourceforge.net/DTD/sodipodi-0.dtd" xmlns:inkscape="http://www.inkscape.org/namespaces/inkscape" version="1.1" width="620" height="288.13" id="svg2" inkscape:version="0.48.4 r9939" sodipodi:docname="Molecule_phenol.svg">
  <sodipodi:namedview pagecolor="#ffffff" bordercolor="#666666" borderopacity="1" objecttolerance="10" gridtolerance="10" guidetolerance="10" inkscape:pageopacity="1" inkscape:pageshadow="2" inkscape:window-width="1330" inkscape:window-height="654" id="namedview7" showgrid="false" inkscape:zoom="0.6" inkscape:cx="645.23551" inkscape:cy="43.611314" inkscape:window-x="212" inkscape:window-y="287" inkscape:window-maximized="0" inkscape:current-layer="svg2" showguides="true" inkscape:guide-bbox="true" inkscape:object-nodes="true" inkscape:snap-smooth-nodes="true">
    <sodipodi:guide orientation="-0.5,0.8660254" position="174.8,75.630005" id="guide2984"/>
    <sodipodi:guide orientation="1,0" position="304.9,75.660005" id="guide2986"/>
    <sodipodi:guide orientation="1,0" position="171.4,75.670005" id="guide3050"/>
  </sodipodi:namedview>
  <defs id="defs4"/>
  <metadata id="metadata7">
    <rdf:RDF>
      <cc:Work rdf:about="">
        <dc:format>image/svg+xml</dc:format>
        <dc:type rdf:resource="http://purl.org/dc/dcmitype/StillImage"/>
        <dc:title/>
      </cc:Work>
    </rdf:RDF>
  </metadata>
  <path inkscape:connector-curvature="0" style="fill:#000000" id="path3009" d="m 219.92992,233.84 c -17.5,10.05 -32.1,18.36 -32.6,18.48 -0.4,0.11 -15,-8.02 -32.4,-18.06 -17.3,-10.04 -34.6,-19.79701 -34.6,-19.79701 l 0,-38.69299 0,-36.69 -22.799999,-13.1 -22.7,-13.11 1,-1.28 1.1,-1.28 22.3,12.91 c 12.899999,7.48 22.699999,12.79 23.299999,12.64 0.5,-0.15 14.8,-8.34 31.9,-18.2 l 32.6,-18.901491 34.3,19.781491 32.5,18.78 0,37.57 0,39.56299 m -33.3,15.34701 29.9,-17.31 0,-36.72 0,-36.72 -31.3,-18.08 c -17.2,-9.94 -32.1,-18.08 -32.1,-18.08 0,0 -14.8,8.13 -32,18.07 l -31.3,18.08 0,36.72 0,36.74 31.6,18.26 31.6,18.28 1.8,-0.97 c 1.1,-0.53 15.3,-8.75 31.8,-18.27 z m -33.6,7.94 c -0.6,-0.95 -0.6,-1.23 0.3,-1.74 0.5,-0.34 12.6,-7.34 26.8,-15.57 22.7,-13.11 26,-14.84 26.6,-14.05 0.3,0.49 0.7,1.16 0.7,1.49 0,0.6 -52.2,31 -53.2,31 -0.3,0 -0.8,-0.51 -1.2,-1.13 z m -55.3,-61.94 0,-31.25 1.7,0 1.7,0 0,31.25 0,31.25 -1.7,0 -1.7,0 z m 82.6,-44.54 c -14,-8.16 -26.1,-15.22 -26.8,-15.68 -1.2,-0.82 -1.2,-0.91 -0.2,-2.05 1,-1.19 1.1,-1.12 27.6,14.19 14.6,8.46 26.5,15.66 26.5,16 0,0.34 -0.4,1.01 -0.7,1.49 -0.6,0.77 -4,-1.02 -26.4,-13.95 z M 51.929921,118.74 c -1.2,-0.42 -2.9,-1.33 -4,-2.03 -7.7,-5.34 -8.8,-19.9 -2,-26.79 3.2,-3.19 5.8,-4.16 11,-4.16 5.4,0 8.1,1.19 11.3,4.88 5.4,6.34 5.2,18.08 -0.3,24.16 -3.9,4.15 -10.6,5.83 -16,3.94 z m 9.8,-4.44 c 4.5,-2.24 6.7,-7.06 6.1,-13.33 -0.5,-5.63 -2.6,-8.92 -6.7,-10.65 -5.5,-2.28 -11.7,0.2 -14.2,5.65 -1.4,3.13 -1.4,9.95 0,13.14 1.1,2.44 4.2,5.35 6.4,5.98 2.7,0.77 5.9,0.46 8.4,-0.79 z m -51.1,-11.79 0,-16.48 2,0 2,0 0,6.82 0,6.82 8.5,0 8.5,0 0,-6.82 0,-6.82 2,0 2,0 0,16.48 0,16.48 -2,0 -2,0 0,-7.67 0,-7.68 -8.5,0 -8.5,0 0,7.68 0,7.67 -2,0 -2,0 z" sodipodi:nodetypes="ccccccccccccccccccccccccccccccccccccssccccccccccccccsccsccsccscccccccccccccccccccccccccccccccc"/>
</svg>
