<?xml version="1.0" encoding="UTF-8" standalone="no"?>
<!-- Created with Inkscape (http://www.inkscape.org/) -->
<svg xmlns:dc="http://purl.org/dc/elements/1.1/" xmlns:cc="http://creativecommons.org/ns#" xmlns:rdf="http://www.w3.org/1999/02/22-rdf-syntax-ns#" xmlns:svg="http://www.w3.org/2000/svg" xmlns="http://www.w3.org/2000/svg" xmlns:sodipodi="http://sodipodi.sourceforge.net/DTD/sodipodi-0.dtd" xmlns:inkscape="http://www.inkscape.org/namespaces/inkscape" version="1.1" width="100%" height="100%" viewBox="82.44 56.25 144.13068 170.68099" id="svg2985" inkscape:version="0.48.4 r9939" sodipodi:docname="Molecule_vanillin.svg">
  <sodipodi:namedview pagecolor="#ffffff" bordercolor="#666666" borderopacity="1" objecttolerance="10" gridtolerance="10" guidetolerance="10" inkscape:pageopacity="1" inkscape:pageshadow="2" inkscape:window-width="1039" inkscape:window-height="783" id="namedview58" showgrid="false" inkscape:document-units="mm" units="mm" fit-margin-top="1" fit-margin-left="1" fit-margin-right="1" fit-margin-bottom="1" inkscape:showpageshadow="false" inkscape:zoom="2.1823562" inkscape:cx="22.094282" inkscape:cy="123.83651" inkscape:window-x="491" inkscape:window-y="137" inkscape:window-maximized="0" inkscape:current-layer="svg2985" showguides="true" inkscape:guide-bbox="true" inkscape:object-nodes="true">
    <sodipodi:guide orientation="-0.5,0.8660254" position="-1.1646585,56.933497" id="guide3166"/>
    <sodipodi:guide orientation="1,0" position="-2.8646585,55.951997" id="guide3168"/>
  </sodipodi:namedview>
  <metadata id="metadata3091">
    <rdf:RDF>
      <cc:Work rdf:about="">
        <dc:format>image/svg+xml</dc:format>
        <dc:type rdf:resource="http://purl.org/dc/dcmitype/StillImage"/>
        <dc:title/>
      </cc:Work>
    </rdf:RDF>
  </metadata>
  <defs id="defs3089"/>
  <clipPath id="77">
    <rect width="1116.9" height="768.33002" x="0.85000002" y="0.85000002" id="rect2988"/>
  </clipPath>
  <g id="g3028" transform="matrix(0.8335,0,0,0.8335,14.316221,9.9641041)">
    <g id="Solid" transform="translate(-76.716693,0.77708265)">
      <path sodipodi:nodetypes="ccccccc" inkscape:connector-curvature="0" style="fill:#000000;fill-rule:evenodd;stroke:#000000;stroke-width:0;stroke-linejoin:miter" id="path2995" d="m 169.98,145.87 0,0 0.85,0.49 0.85,0.49 0,38.7 -1.7,0.9815 c 0,-13.55383 0,-27.10767 0,-40.6615 z"/>
      <path inkscape:connector-curvature="0" style="stroke:#000000;stroke-width:2.03959203" id="line2997" d="m 176.78,149.8 0,32.8"/>
    </g>
    <g id="g2999" transform="translate(-76.716693,0.77708265)">
      <path sodipodi:nodetypes="cccccc" inkscape:connector-curvature="0" style="fill:#000000;fill-rule:evenodd;stroke:#000000;stroke-width:0;stroke-linejoin:miter" id="path3001" d="m 169.98,186.5315 1.7,-0.9815 33.52,19.36 0,0.98 -0.85,0.49 c -11.42861,-6.57986 -23.00329,-13.31593 -34.37,-19.8485 z"/>
    </g>
    <g id="g3003" transform="translate(-76.716693,0.77708265)">
      <path inkscape:connector-curvature="0" style="fill:#000000;fill-rule:evenodd;stroke:#000000;stroke-width:0;stroke-linejoin:miter" id="path3005" d="m 206.05,206.38 0,0 -0.85,-0.49 0,-0.98 33.52,-19.36 0.85,0.49 0,0.98 z"/>
      <path inkscape:connector-curvature="0" style="stroke:#000000;stroke-width:2.03959203" id="line3007" d="M 205.2,199.01 233.62,182.6"/>
    </g>
    <g id="g3009" transform="translate(-76.716693,0.77708265)">
      <path inkscape:connector-curvature="0" style="fill:#000000;fill-rule:evenodd;stroke:#000000;stroke-width:0;stroke-linejoin:miter" id="path3011" d="m 240.42,185.55 0,0 -0.85,0.49 -0.85,-0.49 0,-38.7 0.85,-0.49 0.85,-0.49 z"/>
    </g>
    <g id="g3013" transform="translate(-76.716693,0.77708265)">
      <path inkscape:connector-curvature="0" style="fill:#000000;fill-rule:evenodd;stroke:#000000;stroke-width:0;stroke-linejoin:miter" id="path3015" d="m 240.42,145.87 0,0 -0.85,0.49 -0.85,0.49 -33.52,-19.36 0,-0.98 0.85,-0.49 z"/>
      <path inkscape:connector-curvature="0" style="stroke:#000000;stroke-width:2.03959203" id="line3017" d="M 233.62,149.8 205.2,133.39"/>
    </g>
    <g id="g3019" transform="translate(-76.716693,0.77708265)">
      <path inkscape:connector-curvature="0" style="fill:#000000;fill-rule:evenodd;stroke:#000000;stroke-width:0;stroke-linejoin:miter" id="path3021" d="m 204.35,126.02 0,0 0.85,0.49 0,0.98 -33.52,19.36 -0.85,-0.49 -0.85,-0.49 z"/>
    </g>
    <g id="g3023" transform="translate(-76.716693,0.77708265)">
      <path inkscape:connector-curvature="0" style="fill:#000000;fill-rule:evenodd;stroke:#000000;stroke-width:0;stroke-linejoin:miter" id="path3025" d="m 206.05,126.02 0,0 -0.85,0.49 -0.85,-0.49 0,-39.65 0.85,0.49 0.85,0.49 z"/>
    </g>
    <g id="g3027" transform="translate(-76.716693,0.77708265)">
      <g style="text-anchor:start" id="text3029">
        <path inkscape:connector-curvature="0" style="font-size:24px;fill:#000000;font-family:Arial" id="path3217" d="m 162.7,68.123 c 0,-2.852 0.77,-5.084 2.3,-6.697 1.53,-1.614 3.5,-2.42 5.93,-2.42 1.58,0 3.01,0.379 4.29,1.136 1.27,0.758 2.24,1.815 2.91,3.17 0.67,1.356 1,2.893 1,4.612 0,1.742 -0.35,3.3 -1.05,4.675 -0.71,1.375 -1.7,2.416 -2.99,3.123 -1.29,0.707 -2.68,1.061 -4.18,1.061 -1.61,0 -3.06,-0.391 -4.33,-1.172 -1.27,-0.781 -2.24,-1.848 -2.9,-3.199 -0.65,-1.352 -0.98,-2.781 -0.98,-4.289 z m 2.34,0.03 c 0,2.07 0.56,3.701 1.67,4.893 1.12,1.191 2.51,1.787 4.19,1.787 1.71,0 3.12,-0.602 4.23,-1.805 1.1,-1.203 1.66,-2.91 1.66,-5.121 0,-1.399 -0.24,-2.619 -0.71,-3.662 -0.48,-1.043 -1.17,-1.852 -2.08,-2.426 -0.91,-0.574 -1.93,-0.861 -3.06,-0.861 -1.61,0 -3,0.552 -4.16,1.658 -1.16,1.105 -1.74,2.951 -1.74,5.537 z"/>
      </g>
    </g>
    <g id="g3033" transform="translate(-76.716693,0.77708265)">
      <path inkscape:connector-curvature="0" style="fill:#000000;fill-rule:evenodd;stroke:#000000;stroke-width:0;stroke-linejoin:miter" id="path3037" d="m 206.47,85.14 0,0 1.7,-0.98 -25.09,-14.48 -0.85,1.47 z"/>
      <path inkscape:connector-curvature="0" style="fill:#000000;fill-rule:evenodd;stroke:#000000;stroke-width:0;stroke-linejoin:miter" id="path3039" d="m 204.35,90.78 0,0 0,-1.96 -24.25,-13.99 -0.85,1.47 z"/>
    </g>
    <g id="g3055" transform="translate(-76.716693,0.77708265)">
      <g style="text-anchor:start" id="text3057">
        <path inkscape:connector-curvature="0" style="font-size:24px;fill:#000000;font-family:Arial" id="path3202" d="m 197.03,246.62 c 0,-2.85 0.77,-5.08 2.3,-6.69 1.53,-1.62 3.5,-2.42 5.93,-2.42 1.58,0 3.01,0.37 4.29,1.13 1.27,0.76 2.24,1.82 2.91,3.17 0.67,1.36 1,2.89 1,4.61 0,1.75 -0.35,3.3 -1.05,4.68 -0.71,1.37 -1.7,2.42 -2.99,3.12 -1.29,0.71 -2.68,1.06 -4.18,1.06 -1.61,0 -3.06,-0.39 -4.33,-1.17 -1.27,-0.78 -2.24,-1.85 -2.9,-3.2 -0.65,-1.35 -0.98,-2.78 -0.98,-4.29 z m 2.34,0 c 0,2.07 0.56,3.7 1.67,4.89 1.12,1.19 2.51,1.79 4.19,1.79 1.71,0 3.12,-0.6 4.23,-1.81 1.1,-1.2 1.66,-2.91 1.66,-5.12 0,-1.4 -0.24,-2.62 -0.71,-3.66 -0.48,-1.04 -1.17,-1.85 -2.08,-2.43 -0.91,-0.57 -1.93,-0.86 -3.06,-0.86 -1.61,0 -3,0.56 -4.16,1.66 -1.16,1.11 -1.74,2.95 -1.74,5.54 z"/>
        <path inkscape:connector-curvature="0" style="font-size:24px;fill:#000000;font-family:Arial" id="path3204" d="m 216.45,254.99 0,-17.18 2.27,0 0,7.06 8.93,0 0,-7.06 2.27,0 0,17.18 -2.27,0 0,-8.1 -8.93,0 0,8.1 z"/>
      </g>
    </g>
    <g id="g3061" transform="translate(-76.716693,0.77708265)">
      <path inkscape:connector-curvature="0" style="fill:#000000;fill-rule:evenodd;stroke:#000000;stroke-width:0;stroke-linejoin:miter" id="path3063" d="m 204.35,206.38 0,0 0.85,-0.49 0.85,0.49 0,28.95 -0.85,0 -0.85,0 z"/>
    </g>
    <g id="g3065" transform="translate(-76.716693,0.77708265)">
      <g style="text-anchor:start" id="text3067">
        <path inkscape:connector-curvature="0" style="font-size:24px;fill:#000000;font-family:Arial" id="path3193" d="m 265.74,206.95 c 0,-2.85 0.77,-5.08 2.3,-6.69 1.53,-1.62 3.5,-2.42 5.93,-2.42 1.58,0 3.01,0.37 4.29,1.13 1.27,0.76 2.24,1.82 2.91,3.17 0.67,1.36 1,2.89 1,4.61 0,1.75 -0.35,3.3 -1.05,4.68 -0.71,1.37 -1.7,2.42 -2.99,3.12 -1.29,0.71 -2.68,1.06 -4.18,1.06 -1.61,0 -3.06,-0.39 -4.33,-1.17 -1.27,-0.78 -2.24,-1.85 -2.9,-3.2 -0.65,-1.35 -0.98,-2.78 -0.98,-4.29 z m 2.34,0 c 0,2.07 0.56,3.7 1.67,4.89 1.12,1.19 2.51,1.79 4.19,1.79 1.71,0 3.12,-0.6 4.23,-1.81 1.1,-1.2 1.66,-2.91 1.66,-5.12 0,-1.4 -0.24,-2.62 -0.71,-3.66 -0.48,-1.04 -1.17,-1.85 -2.08,-2.43 -0.91,-0.57 -1.93,-0.86 -3.06,-0.86 -1.61,0 -3,0.56 -4.16,1.66 -1.16,1.11 -1.74,2.95 -1.74,5.54 z"/>
        <path inkscape:connector-curvature="0" style="font-size:24px;fill:#000000;font-family:Arial" id="path3195" d="m 297.35,209.3 2.27,0.57 c -0.48,1.87 -1.33,3.29 -2.57,4.27 -1.24,0.98 -2.76,1.47 -4.54,1.47 -1.86,0 -3.36,-0.37 -4.52,-1.13 -1.16,-0.75 -2.04,-1.84 -2.65,-3.27 -0.61,-1.43 -0.91,-2.97 -0.91,-4.61 0,-1.79 0.34,-3.35 1.03,-4.68 0.68,-1.33 1.65,-2.34 2.91,-3.04 1.27,-0.69 2.66,-1.03 4.17,-1.03 1.72,0 3.16,0.43 4.34,1.31 1.17,0.87 1.99,2.11 2.45,3.69 l -2.24,0.53 c -0.4,-1.25 -0.98,-2.16 -1.74,-2.73 -0.75,-0.57 -1.71,-0.86 -2.86,-0.86 -1.32,0 -2.42,0.32 -3.31,0.95 -0.88,0.63 -1.51,1.48 -1.87,2.55 -0.36,1.07 -0.53,2.17 -0.53,3.3 0,1.46 0.21,2.74 0.63,3.83 0.43,1.09 1.09,1.9 1.99,2.44 0.9,0.54 1.87,0.81 2.92,0.81 1.27,0 2.35,-0.37 3.23,-1.1 0.89,-0.74 1.48,-1.83 1.8,-3.27 z"/>
        <path inkscape:connector-curvature="0" style="font-size:24px;fill:#000000;font-family:Arial" id="path3197" d="m 302.5,215.32 0,-17.18 2.28,0 0,7.06 8.92,0 0,-7.06 2.28,0 0,17.18 -2.28,0 0,-8.1 -8.92,0 0,8.1 z"/>
        <path inkscape:connector-curvature="0" style="font-size:18px;fill:#000000;font-family:Arial" id="path3199" d="m 318.68,217.35 1.58,-0.21 c 0.18,0.89 0.49,1.54 0.93,1.94 0.44,0.39 0.97,0.59 1.59,0.59 0.75,0 1.38,-0.26 1.89,-0.77 0.51,-0.52 0.77,-1.16 0.77,-1.92 0,-0.73 -0.24,-1.33 -0.71,-1.8 -0.48,-0.47 -1.08,-0.71 -1.81,-0.71 -0.3,0 -0.67,0.1 -1.12,0.18 l 0.18,-1.39 c 0.1,0 0.19,0 0.25,0 0.67,0 1.28,-0.18 1.82,-0.53 0.54,-0.35 0.81,-0.89 0.81,-1.62 0,-0.58 -0.2,-1.06 -0.59,-1.45 -0.39,-0.38 -0.9,-0.57 -1.52,-0.57 -0.62,0 -1.13,0.2 -1.54,0.58 -0.41,0.39 -0.67,0.97 -0.79,1.74 l -1.58,-0.28 c 0.19,-1.06 0.63,-1.88 1.32,-2.46 0.68,-0.59 1.53,-0.88 2.55,-0.88 0.71,0 1.35,0.15 1.95,0.46 0.59,0.3 1.04,0.71 1.35,1.23 0.32,0.52 0.47,1.08 0.47,1.66 0,0.56 -0.15,1.06 -0.44,1.52 -0.3,0.46 -0.75,0.82 -1.33,1.09 0.76,0.18 1.35,0.54 1.77,1.1 0.43,0.55 0.64,1.24 0.64,2.07 0,1.13 -0.41,2.08 -1.23,2.87 -0.82,0.78 -1.86,1.17 -3.11,1.17 -1.14,0 -2.07,-0.34 -2.82,-1.01 -0.75,-0.68 -1.17,-1.55 -1.28,-2.62 z"/>
      </g>
    </g>
    <g id="g3073" transform="translate(-76.716693,0.77708265)">
      <path inkscape:connector-curvature="0" style="fill:#000000;fill-rule:evenodd;stroke:#000000;stroke-width:0;stroke-linejoin:miter" id="path3075" d="m 239.57,187.02 0,0 0,-0.98 0.85,-0.49 24.64,14.23 -0.43,0.73 -0.42,0.74 z"/>
    </g>
    <g id="g3077" transform="translate(-76.716693,0.77708265)">
      <g style="text-anchor:start" id="text3079">
        <path inkscape:connector-curvature="0" style="font-size:24px;fill:#000000;font-family:Arial" id="path3190" d="m 232.81,76.47 0,-17.18 2.28,0 0,7.055 8.92,0 0,-7.055 2.28,0 0,17.18 -2.28,0 0,-8.098 -8.92,0 0,8.098 z"/>
      </g>
    </g>
    <g id="g3083" transform="translate(-76.716693,0.77708265)">
      <path inkscape:connector-curvature="0" style="fill:#000000;fill-rule:evenodd;stroke:#000000;stroke-width:0;stroke-linejoin:miter" id="path3085" d="m 206.05,87.35 0,0 -0.85,-0.49 -0.85,-0.49 26.16,-15.1 0.42,0.74 0.43,0.73 z"/>
    </g>
  </g>
</svg>
