<?xml version="1.0" encoding="UTF-8" standalone="no"?>
<!-- Created with Inkscape (http://www.inkscape.org/) -->
<svg xmlns:dc="http://purl.org/dc/elements/1.1/" xmlns:cc="http://creativecommons.org/ns#" xmlns:rdf="http://www.w3.org/1999/02/22-rdf-syntax-ns#" xmlns:svg="http://www.w3.org/2000/svg" xmlns="http://www.w3.org/2000/svg" xmlns:sodipodi="http://sodipodi.sourceforge.net/DTD/sodipodi-0.dtd" xmlns:inkscape="http://www.inkscape.org/namespaces/inkscape" version="1.0" width="620" height="213.34" id="svg2" inkscape:version="0.48.4 r9939" sodipodi:docname="Molecule_p-coumaryl_alcohol.svg">
  <metadata id="metadata8">
    <rdf:RDF>
      <cc:Work rdf:about="">
        <dc:format>image/svg+xml</dc:format>
        <dc:type rdf:resource="http://purl.org/dc/dcmitype/StillImage"/>
        <dc:title/>
      </cc:Work>
    </rdf:RDF>
  </metadata>
  <sodipodi:namedview pagecolor="#ffffff" bordercolor="#666666" borderopacity="1" objecttolerance="10" gridtolerance="10" guidetolerance="10" inkscape:pageopacity="1" inkscape:pageshadow="2" inkscape:window-width="640" inkscape:window-height="480" id="namedview6" showgrid="false" inkscape:document-units="mm" units="mm" inkscape:zoom="0.21213204" inkscape:cx="-357.57161" inkscape:cy="278.90109" inkscape:window-x="185" inkscape:window-y="112" inkscape:window-maximized="0" inkscape:current-layer="layer1" showguides="true" inkscape:guide-bbox="true" inkscape:snap-bbox="false"/>
  <defs id="defs4"/>
  <g transform="translate(262.21428,-872.54317)" id="layer1">
    <path d="m -107.20379,1031.5714 c -17.75041,-10.2532 -32.42433,-18.6338 -32.60869,-18.6235 l -2.03653,-2.6282 0.13753,-36.83326 0.13753,-36.83323 -17.71787,-10.19416 c -9.74483,-5.60679 -19.95938,-11.50137 -22.69899,-13.09906 l -4.98112,-2.9049 1.02057,-1.26035 1.02057,-1.26035 22.59937,13.07067 22.59937,13.07067 31.26666,-18.04572 c 17.196667,-9.92514 31.841062,-18.35004 32.543102,-18.722 1.157047,-0.61302 4.379631,1.11385 34.451796,18.46157 l 33.1753549,19.13785 0,37.51595 0,37.51592 31.2839091,18.0829 c 17.206152,9.9455 31.561071,18.1524 31.899811,18.2374 0.33875,0.085 15.03462,-8.1832 32.65749,-18.3738 17.622867,-10.1906 32.296787,-18.5289 32.608697,-18.5296 0.3119,-7e-4 14.54593,8.0846 31.63116,17.9674 17.08524,9.8828 31.63898,18.2306 32.34165,18.5507 1.1144,0.5078 3.99171,-0.9882 22.52762,-11.7128 11.68752,-6.7622 21.82852,-12.5623 22.53555,-12.8892 1.04497,-0.4831 1.43577,-0.3908 2.08848,0.4935 0.44163,0.5983 0.62874,1.2622 0.41581,1.4755 -0.21293,0.2132 -10.78258,6.3871 -23.4881,13.7197 l -23.10094,13.3321 -32.33909,-18.682 c -17.78649,-10.275 -32.46196,-18.6819 -32.61214,-18.6819 -0.15019,0 -14.82764,8.408 -32.616547,18.6845 l -32.34349,18.6845 -32.359573,-18.6845 c -17.797764,-10.2765 -32.4792531,-18.6845 -32.6255331,-18.6845 -0.146286,0 -14.3522099,8.1301 -31.5687339,18.0669 -17.216518,9.9369 -31.813157,18.3259 -32.436975,18.6422 -0.95641,0.4851 -6.193543,-2.3472 -33.407708,-18.0669 z m 64.836927,-3.6597 31.244382,-18.0417 -0.145871,-36.52648 -0.145878,-36.52646 -31.667177,-18.28669 -31.667184,-18.28669 -31.565329,18.23433 -31.56534,18.23433 -0.14589,36.63435 -0.1459,36.63431 31.33682,18.1712 c 17.235254,9.9941 31.761208,18.0879 32.279902,17.9862 0.518694,-0.1017 15.003051,-8.3037 32.187465,-18.2267 z m -32.301981,7.6605 c -0.513023,-0.9586 -0.489403,-1.3764 0.108516,-1.9199 0.849238,-0.7718 50.714989,-29.5381 52.128261,-30.0714 0.584342,-0.2205 1.100183,0.1218 1.497414,0.9936 0.588533,1.2917 -0.05664,1.713 -22.398998,14.625 -33.694911,19.4728 -30.554308,17.8318 -31.335193,16.3727 z m -55.554456,-62.05699 0,-30.90737 1.70132,0 1.70132,0 0,30.90737 0,30.90739 -1.70132,0 -1.70132,0 z m 81.670698,-45.09649 c -14.499828,-8.39133 -26.4338,-15.46839 -26.519932,-15.72679 -0.08613,-0.2584 0.185864,-0.93817 0.604429,-1.5106 0.710212,-0.97126 2.519371,-0.0276 27.08704,14.12837 14.479304,8.34304 26.527588,15.35222 26.773973,15.57596 0.24638,0.22374 -0.0088,0.94303 -0.567107,1.59842 -1.014329,1.19074 -1.034575,1.18034 -27.378403,-14.06536 z M 55.206783,1035.5875 c -0.36192,-0.6763 -0.44299,-1.4442 -0.18017,-1.7066 0.48327,-0.4824 57.239437,-33.3477 58.363627,-33.7961 0.33432,-0.13339 0.89426,0.3861 1.24429,1.1543 0.62987,1.3824 0.33514,1.5708 -28.641077,18.3111 -16.10262,9.3029 -29.469,16.9937 -29.70306,17.0906 -0.23406,0.097 -0.72168,-0.3771 -1.08361,-1.0533 z m 189.594417,-7.5661 c -3.61094,-1.1805 -6.70781,-3.9497 -8.50109,-7.6015 -1.40266,-2.8563 -1.58958,-3.8705 -1.58958,-8.6245 0,-4.7588 0.1862,-5.7667 1.59559,-8.6368 3.41261,-6.94952 10.493,-9.86885 18.29203,-7.54207 6.00947,1.79288 9.71121,7.04647 10.28189,14.59237 0.79123,10.4612 -4.85943,17.8136 -14.12269,18.3757 -2.09515,0.1272 -4.55621,-0.1056 -5.95615,-0.5632 z m 11.02539,-5.2394 c 2.74313,-2.1867 4.15421,-5.0711 4.53496,-9.2702 0.58373,-6.4376 -1.81219,-11.6353 -6.30352,-13.67495 -5.86277,-2.66239 -12.4226,0.33265 -14.25686,6.50925 -3.02147,10.1744 2.03256,18.8897 10.6379,18.3442 2.57575,-0.1632 3.69628,-0.5601 5.38752,-1.9083 z m 14.89528,-10.9866 0,-16.44614 2.26843,0 2.26844,0 0,6.80534 0,6.8053 8.50661,0 8.50662,0 0,-6.8053 0,-6.80534 2.26843,0 2.26843,0 0,16.44614 0,16.4461 -2.26843,0 -2.26843,0 0,-7.6559 0,-7.656 -8.50662,0 -8.50661,0 0,7.656 0,7.6559 -2.26844,0 -2.26843,0 z m -480.74108,-96.06136 c -3.61094,-1.18051 -6.70781,-3.94965 -8.50109,-7.60146 -1.40267,-2.85636 -1.58958,-3.87053 -1.58958,-8.62453 0,-4.75882 0.18619,-5.7667 1.59559,-8.63682 3.4126,-6.94948 10.49299,-9.86882 18.29202,-7.54204 6.00949,1.79289 9.71123,7.04648 10.28192,14.59233 0.79119,10.46125 -4.85948,17.8136 -14.12272,18.37577 -2.09514,0.12715 -4.55621,-0.10559 -5.95614,-0.56325 z m 11.02538,-5.23937 c 2.74313,-2.18668 4.15421,-5.07114 4.53497,-9.27016 0.58374,-6.43761 -1.8122,-11.6354 -6.30353,-13.67499 -5.86277,-2.6624 -12.42259,0.33263 -14.25686,6.50926 -3.02147,10.17439 2.03257,18.88969 10.6379,18.34423 2.57576,-0.16327 3.69628,-0.56018 5.38752,-1.90834 z m -52.59053,-10.98662 0,-16.44612 2.26843,0 2.26843,0 0,6.80529 0,6.80529 8.50661,0 8.50662,0 0,-6.80529 0,-6.80529 2.26843,0 2.26843,0 0,16.44612 0,16.44613 -2.26843,0 -2.26843,0 0,-7.65596 0,-7.65595 -8.50662,0 -8.50661,0 0,7.65595 0,7.65596 -2.26843,0 -2.26843,0 z" id="path2525" style="fill:#000000" inkscape:connector-curvature="0" sodipodi:nodetypes="sccccsscccccssscccssssscscccscssscssscsscccccccccsssscscsscccccccccsscssssccccscccsssssccsssscscccccccccccccccccccccccccssssssssssssssccccccccccccccccccccccccc"/>
  </g>
</svg>
