<?xml version="1.0" encoding="UTF-8" standalone="no"?>
<svg xmlns:dc="http://purl.org/dc/elements/1.1/" xmlns:cc="http://creativecommons.org/ns#" xmlns:rdf="http://www.w3.org/1999/02/22-rdf-syntax-ns#" xmlns:svg="http://www.w3.org/2000/svg" xmlns="http://www.w3.org/2000/svg" xmlns:sodipodi="http://sodipodi.sourceforge.net/DTD/sodipodi-0.dtd" xmlns:inkscape="http://www.inkscape.org/namespaces/inkscape" width="197.85826" height="207.53149" viewBox="0 0 158.28663 166.02521" id="svg2" version="1.1" inkscape:version="0.48.4 r9939" sodipodi:docname="Molecule_4-hydroxybenzoic_acid.svg">
  <sodipodi:namedview pagecolor="#ffffff" bordercolor="#666666" borderopacity="1" objecttolerance="10" gridtolerance="10" guidetolerance="10" inkscape:pageopacity="1" inkscape:pageshadow="2" inkscape:window-width="1447" inkscape:window-height="792" id="namedview104" showgrid="false" inkscape:showpageshadow="false" units="mm" inkscape:document-units="mm" fit-margin-top="1" fit-margin-left="1" fit-margin-bottom="1" fit-margin-right="1" inkscape:zoom="3.71" inkscape:cx="109.08836" inkscape:cy="131.47502" inkscape:window-x="310" inkscape:window-y="61" inkscape:window-maximized="0" inkscape:current-layer="svg2" inkscape:snap-object-midpoints="false" showguides="true" inkscape:guide-bbox="true" inkscape:snap-bbox="true" inkscape:snap-bbox-edge-midpoints="true" inkscape:bbox-paths="true" inkscape:snap-global="true" inkscape:snap-bbox-midpoints="false" inkscape:object-nodes="true">
    <sodipodi:guide orientation="1,0" position="82.679959,74.714071" id="guide4325"/>
    <sodipodi:guide orientation="-0.5,-0.8660254" position="11.359417,73.201982" id="guide4327"/>
    <sodipodi:guide orientation="-0.5,0.8660254" position="81.860899,73.201982" id="guide4329"/>
    <sodipodi:guide orientation="1,0" position="98.929134,79.195957" id="guide3031"/>
    <sodipodi:guide orientation="0,1" position="80.923235,203.97998" id="guide3033"/>
  </sodipodi:namedview>
  <metadata id="metadata108">
    <rdf:RDF>
      <cc:Work rdf:about="">
        <dc:format>image/svg+xml</dc:format>
        <dc:type rdf:resource="http://purl.org/dc/dcmitype/StillImage"/>
        <dc:title/>
      </cc:Work>
    </rdf:RDF>
  </metadata>
  <defs id="defs106"/>
  <g transform="matrix(0.90306,0,0,0.90306,5.091501,7.0176776)" id="g3085">
    <g id="g4331">
      <g id="g4" style="fill:#161413;fill-rule:nonzero;stroke:none" transform="matrix(1.11628,0,0,1.11628,49.628873,73.82964)">
        <path sodipodi:nodetypes="ccccc" inkscape:connector-curvature="0" id="path6" d="M 1.3496,32.2998 9.028409e-8,33.09553 C -1.2245113e-7,22.063687 0,11.031843 0,0 l 1.3496,0.7998 z"/>
      </g>
      <g id="g8" style="fill:#161413;fill-rule:nonzero;stroke:none" transform="matrix(1.11628,0,0,1.11628,56.158664,78.01569)">
        <path inkscape:connector-curvature="0" id="path10" d="m 1.3506,25.5998 c 0,0 -1.3506,0 -1.3506,0 C 0,25.5998 0,0 0,0 c 0,0 1.3506,0 1.3506,0 0,0 0,25.5998 0,25.5998 z"/>
      </g>
      <g id="g12" style="fill:#161413;fill-rule:nonzero;stroke:none" transform="matrix(1.11628,0,0,1.11628,50.410492,109.88525)">
        <path sodipodi:nodetypes="cccccc" inkscape:connector-curvature="0" id="path14" d="m 27.9502,15.8 0,0.75 -0.6504,0.4 C 17.967526,11.563411 8.631465,6.183383 -0.70019968,0.79573917 L 0.6494,0 z"/>
      </g>
      <g id="g16" style="fill:#161413;fill-rule:nonzero;stroke:none" transform="matrix(1.11628,0,0,1.11628,81.610741,109.88525)">
        <path sodipodi:nodetypes="cccccc" inkscape:connector-curvature="0" id="path18" d="m 27.2996,0 1.350001,0.82471975 C 19.333049,6.200244 10.016042,11.574978 0.6992,16.95 L 0,16.55 0,15.8 z"/>
      </g>
      <path style="fill:#161413;fill-rule:nonzero;stroke:none" d="m 106.00102,105.92246 c 0,0 0.72558,1.33954 0.72558,1.33954 0,0 -24.725607,14.28838 -24.725607,14.28838 0,0 -0.726029,-1.33954 -0.726029,-1.33954 0,0 24.726056,-14.28838 24.726056,-14.28838 z" id="path22" inkscape:connector-curvature="0"/>
      <g id="g24" style="fill:#161413;fill-rule:nonzero;stroke:none" transform="matrix(1.11628,0,0,1.11628,112.08474,73.82964)">
        <path sodipodi:nodetypes="ccccc" inkscape:connector-curvature="0" id="path26" d="M 0,0.7998 1.35,0 c -9e-7,11.041503 1.2e-6,22.083007 -1e-7,33.12451 L 0,32.2998 z"/>
      </g>
      <g id="g28" style="fill:#161413;fill-rule:nonzero;stroke:none" transform="matrix(1.11628,0,0,1.11628,81.610741,55.801271)">
        <path inkscape:connector-curvature="0" id="path30" d="m 0,1.2002 c 0,0 0,-0.7998 0,-0.7998 C 0,0.4004 0.6992,0 0.6992,0 c 0,0 27.9504,16.1504 27.9504,16.1504 0,0 -1.35,0.7998 -1.35,0.7998 0,0 -27.2996,-15.75 -27.2996,-15.75 z"/>
      </g>
      <g id="g32" style="fill:#161413;fill-rule:nonzero;stroke:none" transform="matrix(1.11628,0,0,1.11628,81.274964,63.112682)">
        <path inkscape:connector-curvature="0" id="path34" d="M 0,1.1504 C 0,1.1504 0.6504,0 0.6504,0 c 0,0 22.15,12.8008 22.15,12.8008 0,0 -0.65,1.1494 -0.65,1.1494 C 22.1504,13.9502 0,1.1504 0,1.1504 z"/>
      </g>
      <g id="g36" style="fill:#161413;fill-rule:nonzero;stroke:none" transform="matrix(1.11628,0,0,1.11628,49.628873,55.801271)">
        <path inkscape:connector-curvature="0" id="path38" d="M 1.3496,16.9502 C 1.3496,16.9502 0,16.1504 0,16.1504 0,16.1504 28,0 28,0 c 0,0 0.6504,0.4004 0.6504,0.4004 0,0 0,0.7998 0,0.7998 0,0 -27.3008,15.75 -27.3008,15.75 z"/>
      </g>
      <g id="g40" style="fill:#161413;fill-rule:nonzero;stroke:none" transform="matrix(1.11628,0,0,1.11628,80.884713,19.74565)">
        <path inkscape:connector-curvature="0" id="path42" d="m 0,0 c 0,0 1.3496,0.7998 1.3496,0.7998 0,0 0,31.5 0,31.5 0,0 -0.6992,0.4004 -0.6992,0.4004 C 0.6504,32.7002 0,32.2998 0,32.2998 0,32.2998 0,0 0,0 z"/>
      </g>
      <g id="g48" style="fill:#161413;fill-rule:nonzero;stroke:none" transform="matrix(1.11628,0,0,1.11628,59.954463,11.03889)">
        <path inkscape:connector-curvature="0" id="path50" d="M 0,1.1494 C 0,1.1494 0.7002,0 0.7002,0 c 0,0 19.0498,11 19.0498,11 0,0 -0.6504,1.1494 -0.6504,1.1494 0,0 -19.0996,-11 -19.0996,-11 z"/>
      </g>
      <g id="g52" style="fill:#161413;fill-rule:nonzero;stroke:none" transform="matrix(1.11628,0,0,1.11628,63.192121,5.4018989)">
        <path inkscape:connector-curvature="0" id="path54" d="M 0,1.1494 C 0,1.1494 0.6992,0 0.6992,0 c 0,0 19.0508,11 19.0508,11 0,0 -0.6504,1.1494 -0.6504,1.1494 0,0 -19.0996,-11 -19.0996,-11 z"/>
      </g>
      <g id="g64" style="fill:#161413;fill-rule:nonzero;stroke:none" transform="matrix(1.11628,0,0,1.11628,80.884713,8.1925989)">
        <path inkscape:connector-curvature="0" id="path66" d="m 17.9,0 c 0,0 0.7,1.1992 0.7,1.1992 0,0 -17.2504,9.9502 -17.2504,9.9502 C 1.3496,11.1494 0,10.3496 0,10.3496 0,10.3496 17.9,0 17.9,0 z"/>
      </g>
      <g id="g88" style="fill:#161413;fill-rule:nonzero;stroke:none" transform="matrix(1.11628,0,0,1.11628,80.884713,128.35969)">
        <path inkscape:connector-curvature="0" id="path90" d="m 1.3496,21.25 c 0,0 -1.3496,0 -1.3496,0 C 0,21.25 0,0.4 0,0.4 0,0.4 0.6504,0 0.6504,0 c 0,0 0.6992,0.4 0.6992,0.4 0,0 0,20.85 0,20.85 z"/>
      </g>
      <g id="g44" style="fill:#161413;fill-rule:evenodd;stroke:none" transform="matrix(0.99999711,0,0,0.99999711,43.48638,-4.6284231)">
        <path inkscape:connector-curvature="0" id="path46" d="M 7.8731,0 C 3.1846,0 0,3.4541 0,8.56742 c 0,5.11418 3.1846,8.56828 7.8955,8.56828 1.9737,0 3.7452,-0.6054 5.0684,-1.7265 1.7725,-1.503 2.8262,-4.0381 2.8262,-6.70708 C 15.7901,3.43164 12.6729,0 7.8731,0 z m 0,1.83887 c 3.5439,0 5.831,2.69141 5.831,6.81835 0,3.94828 -2.3545,6.63968 -5.8086,6.63968 -3.4765,0 -5.8095,-2.6914 -5.8095,-6.72948 0,-4.03714 2.333,-6.72855 5.7871,-6.72855 z"/>
      </g>
      <g transform="matrix(0.99999711,0,0,0.99999711,2.3364795,-7.4630607)" id="g3879">
        <g transform="translate(101.82632,2.8346457)" style="fill:#161413;fill-rule:evenodd;stroke:none" id="g56">
          <path d="M 7.873,0 C 3.184,0 0,3.4541 0,8.56742 c 0,5.11418 3.184,8.56828 7.895,8.56828 1.974,0 3.745,-0.6054 5.068,-1.7265 1.773,-1.503 2.827,-4.0381 2.827,-6.70708 C 15.79,3.43164 12.672,0 7.873,0 z m 0,1.83887 c 3.544,0 5.831,2.69141 5.831,6.81835 0,3.94828 -2.355,6.63968 -5.809,6.63968 -3.477,0 -5.81,-2.6914 -5.81,-6.72948 0,-4.03714 2.333,-6.72855 5.788,-6.72855 z" id="path58" inkscape:connector-curvature="0"/>
        </g>
        <g transform="translate(120.08432,3.1032057)" style="fill:#161413;fill-rule:evenodd;stroke:none" id="g60">
          <path d="m 10.498,8.90526 c 0,0 0,7.44634 0,7.44634 0,0 2.086,0 2.086,0 0,0 0,-16.3516 0,-16.3516 0,0 -2.086,0 -2.086,0 0,0 0,7.06543 0,7.06543 0,0 -8.412,0 -8.412,0 0,0 0,-7.06543 0,-7.06543 C 2.086,0 0,0 0,0 c 0,0 0,16.3516 0,16.3516 0,0 2.109,0 2.109,0 0,0 0,-7.44634 0,-7.44634 0,0 8.389,0 8.389,0 z" id="path62" inkscape:connector-curvature="0"/>
        </g>
      </g>
      <g transform="matrix(0.99999711,0,0,0.99999711,0.04118134,7.4635196)" id="g3821">
        <g transform="translate(73.825816,148.33476)" style="fill:#161413;fill-rule:evenodd;stroke:none" id="g80">
          <path d="M 7.8731,0 C 3.1846,0 0,3.454 0,8.567 c 0,5.115 3.1846,8.569 7.8955,8.569 1.9737,0 3.7452,-0.606 5.0684,-1.727 1.7725,-1.503 2.8262,-4.038 2.8262,-6.707 C 15.7901,3.432 12.6729,0 7.8731,0 z m 0,1.839 c 3.5439,0 5.831,2.691 5.831,6.818 0,3.948 -2.3545,6.64 -5.8086,6.64 -3.4765,0 -5.8095,-2.692 -5.8095,-6.73 0,-4.037 2.333,-6.728 5.7871,-6.728 z" id="path82" inkscape:connector-curvature="0"/>
        </g>
        <g transform="translate(92.084616,148.60276)" style="fill:#161413;fill-rule:evenodd;stroke:none" id="g84">
          <path d="m 10.4977,8.906 c 0,0 0,7.446 0,7.446 0,0 2.086,0 2.086,0 0,0 0,-16.352 0,-16.352 0,0 -2.086,0 -2.086,0 0,0 0,7.066 0,7.066 0,0 -8.4117,0 -8.4117,0 0,0 0,-7.066 0,-7.066 C 2.086,0 0,0 0,0 c 0,0 0,16.352 0,16.352 0,0 2.1084,0 2.1084,0 0,0 0,-7.446 0,-7.446 0,0 8.3893,0 8.3893,0 z" id="path86" inkscape:connector-curvature="0"/>
        </g>
      </g>
    </g>
  </g>
</svg>
